# Retail Empire Tycoon TownKit; metres; ground-centred pivot
mtllib ../TownKit.mtl
o GrassyHill
v -4.045085 0 2.351141
v -5 0 0
v 0.4 2.4 0.3
v -1.545085 0 3.804226
v -4.045085 0 2.351141
v 0.4 2.4 0.3
v 1.545085 0 3.804226
v -1.545085 0 3.804226
v 0.4 2.4 0.3
v 4.045085 0 2.351141
v 1.545085 0 3.804226
v 0.4 2.4 0.3
v 5 0 0
v 4.045085 0 2.351141
v 0.4 2.4 0.3
v 4.045085 0 -2.351141
v 5 0 0
v 0.4 2.4 0.3
v 1.545085 0 -3.804226
v 4.045085 0 -2.351141
v 0.4 2.4 0.3
v -1.545086 0 -3.804226
v 1.545085 0 -3.804226
v 0.4 2.4 0.3
v -4.045086 0 -2.35114
v -1.545086 0 -3.804226
v 0.4 2.4 0.3
v -5 0 0.000001
v -4.045086 0 -2.35114
v 0.4 2.4 0.3
vt 0.390625 0.5
vt 0.390625 0.5
vt 0.390625 0.5
vt 0.484375 0.5
vt 0.484375 0.5
vt 0.484375 0.5
vt 0.484375 0.5
vt 0.484375 0.5
vt 0.484375 0.5
vt 0.390625 0.5
vt 0.390625 0.5
vt 0.390625 0.5
vt 0.484375 0.5
vt 0.484375 0.5
vt 0.484375 0.5
vt 0.484375 0.5
vt 0.484375 0.5
vt 0.484375 0.5
vt 0.390625 0.5
vt 0.390625 0.5
vt 0.390625 0.5
vt 0.484375 0.5
vt 0.484375 0.5
vt 0.484375 0.5
vt 0.484375 0.5
vt 0.484375 0.5
vt 0.484375 0.5
vt 0.390625 0.5
vt 0.390625 0.5
vt 0.390625 0.5
vn -0.408195 0.897715 0.165788
vn -0.408195 0.897715 0.165788
vn -0.408195 0.897715 0.165788
vn -0.258207 0.857894 0.444238
vn -0.258207 0.857894 0.444238
vn -0.258207 0.857894 0.444238
vn 0 0.825047 0.565064
vn 0 0.825047 0.565064
vn 0 0.825047 0.565064
vn 0.278475 0.83241 0.479109
vn 0.278475 0.83241 0.479109
vn 0.278475 0.83241 0.479109
vn 0.463912 0.865612 0.188418
vn 0.463912 0.865612 0.188418
vn 0.463912 0.865612 0.188418
vn 0.445623 0.876734 -0.18099
vn 0.445623 0.876734 -0.18099
vn 0.445623 0.876734 -0.18099
vn 0.252767 0.864285 -0.43488
vn 0.252767 0.864285 -0.43488
vn 0.252767 0.864285 -0.43488
vn 0 0.863241 -0.504792
vn 0 0.863241 -0.504792
vn 0 0.863241 -0.504792
vn -0.235426 0.883467 -0.405045
vn -0.235426 0.883467 -0.405045
vn -0.235426 0.883467 -0.405045
vn -0.393491 0.905331 -0.159816
vn -0.393491 0.905331 -0.159816
vn -0.393491 0.905331 -0.159816
usemtl TownPalette
f 1/1/1 3/3/3 2/2/2
f 4/4/4 6/6/6 5/5/5
f 7/7/7 9/9/9 8/8/8
f 10/10/10 12/12/12 11/11/11
f 13/13/13 15/15/15 14/14/14
f 16/16/16 18/18/18 17/17/17
f 19/19/19 21/21/21 20/20/20
f 22/22/22 24/24/24 23/23/23
f 25/25/25 27/27/27 26/26/26
f 28/28/28 30/30/30 29/29/29
