# Retail Empire Tycoon TownKit; metres; ground-centred pivot
mtllib ../TownKit.mtl
o GrassClump
v 0.035 0 0
v -0.035 0 0
v -0.09 0.26 0.04
v -0.035 0 0
v 0.035 0 0
v -0.09 0.26 0.04
v 0.130858 0 0.087814
v 0.060858 0 0.087814
v 0.005858 0.33 0.127814
v 0.060858 0 0.087814
v 0.130858 0 0.087814
v 0.005858 0.33 0.127814
v 0.018928 0 -0.183144
v -0.051072 0 -0.183144
v -0.106072 0.4 -0.143144
v -0.051072 0 -0.183144
v 0.018928 0 -0.183144
v -0.106072 0.4 -0.143144
v -0.102002 0 0.178691
v -0.172002 0 0.178691
v -0.227002 0.47 0.218691
v -0.172002 0 0.178691
v -0.102002 0 0.178691
v -0.227002 0.47 0.218691
v 0.291026 0 -0.045284
v 0.221026 0 -0.045284
v 0.166026 0.26 -0.005284
v 0.221026 0 -0.045284
v 0.291026 0 -0.045284
v 0.166026 0.26 -0.005284
v -0.210268 0 -0.156025
v -0.280268 0 -0.156025
v -0.335268 0.33 -0.116025
v -0.280268 0 -0.156025
v -0.210268 0 -0.156025
v -0.335268 0.33 -0.116025
v 0.117661 0 0.307518
v 0.047661 0 0.307518
v -0.007339 0.4 0.347518
v 0.047661 0 0.307518
v 0.117661 0 0.307518
v -0.007339 0.4 0.347518
v 0.193535 0 -0.305232
v 0.123535 0 -0.305232
v 0.068535 0.47 -0.265232
v 0.123535 0 -0.305232
v 0.193535 0 -0.305232
v 0.068535 0.47 -0.265232
v -0.310387 0 0.126125
v -0.380387 0 0.126125
v -0.435387 0.26 0.166125
v -0.380387 0 0.126125
v -0.310387 0 0.126125
v -0.435387 0.26 0.166125
v 0.39549 0 0.148818
v 0.32549 0 0.148818
v 0.27049 0.33 0.188818
v 0.32549 0 0.148818
v 0.39549 0 0.148818
v 0.27049 0.33 0.188818
vt 0.359375 0.5
vt 0.359375 0.5
vt 0.359375 0.5
vt 0.359375 0.5
vt 0.359375 0.5
vt 0.359375 0.5
vt 0.359375 0.5
vt 0.359375 0.5
vt 0.359375 0.5
vt 0.359375 0.5
vt 0.359375 0.5
vt 0.359375 0.5
vt 0.359375 0.5
vt 0.359375 0.5
vt 0.359375 0.5
vt 0.359375 0.5
vt 0.359375 0.5
vt 0.359375 0.5
vt 0.359375 0.5
vt 0.359375 0.5
vt 0.359375 0.5
vt 0.359375 0.5
vt 0.359375 0.5
vt 0.359375 0.5
vt 0.359375 0.5
vt 0.359375 0.5
vt 0.359375 0.5
vt 0.359375 0.5
vt 0.359375 0.5
vt 0.359375 0.5
vt 0.359375 0.5
vt 0.359375 0.5
vt 0.359375 0.5
vt 0.359375 0.5
vt 0.359375 0.5
vt 0.359375 0.5
vt 0.359375 0.5
vt 0.359375 0.5
vt 0.359375 0.5
vt 0.359375 0.5
vt 0.359375 0.5
vt 0.359375 0.5
vt 0.359375 0.5
vt 0.359375 0.5
vt 0.359375 0.5
vt 0.359375 0.5
vt 0.359375 0.5
vt 0.359375 0.5
vt 0.359375 0.5
vt 0.359375 0.5
vt 0.359375 0.5
vt 0.359375 0.5
vt 0.359375 0.5
vt 0.359375 0.5
vt 0.359375 0.5
vt 0.359375 0.5
vt 0.359375 0.5
vt 0.359375 0.5
vt 0.359375 0.5
vt 0.359375 0.5
vn 0 -0.152057 0.988372
vn 0 -0.152057 0.988372
vn 0 -0.152057 0.988372
vn 0 0.152057 -0.988372
vn 0 0.152057 -0.988372
vn 0 0.152057 -0.988372
vn 0 -0.120331 0.992734
vn 0 -0.120331 0.992734
vn 0 -0.120331 0.992734
vn 0 0.120331 -0.992734
vn 0 0.120331 -0.992734
vn 0 0.120331 -0.992734
vn 0 -0.099504 0.995037
vn 0 -0.099504 0.995037
vn 0 -0.099504 0.995037
vn 0 0.099504 -0.995037
vn 0 0.099504 -0.995037
vn 0 0.099504 -0.995037
vn 0 -0.0848 0.996398
vn 0 -0.0848 0.996398
vn 0 -0.0848 0.996398
vn 0 0.0848 -0.996398
vn 0 0.0848 -0.996398
vn 0 0.0848 -0.996398
vn 0 -0.152057 0.988372
vn 0 -0.152057 0.988372
vn 0 -0.152057 0.988372
vn 0 0.152057 -0.988372
vn 0 0.152057 -0.988372
vn 0 0.152057 -0.988372
vn 0 -0.120331 0.992734
vn 0 -0.120331 0.992734
vn 0 -0.120331 0.992734
vn 0 0.120331 -0.992734
vn 0 0.120331 -0.992734
vn 0 0.120331 -0.992734
vn 0 -0.099504 0.995037
vn 0 -0.099504 0.995037
vn 0 -0.099504 0.995037
vn 0 0.099504 -0.995037
vn 0 0.099504 -0.995037
vn 0 0.099504 -0.995037
vn 0 -0.0848 0.996398
vn 0 -0.0848 0.996398
vn 0 -0.0848 0.996398
vn 0 0.0848 -0.996398
vn 0 0.0848 -0.996398
vn 0 0.0848 -0.996398
vn 0 -0.152057 0.988372
vn 0 -0.152057 0.988372
vn 0 -0.152057 0.988372
vn 0 0.152057 -0.988372
vn 0 0.152057 -0.988372
vn 0 0.152057 -0.988372
vn 0 -0.120331 0.992734
vn 0 -0.120331 0.992734
vn 0 -0.120331 0.992734
vn 0 0.120331 -0.992734
vn 0 0.120331 -0.992734
vn 0 0.120331 -0.992734
usemtl TownPalette
f 1/1/1 3/3/3 2/2/2
f 4/4/4 6/6/6 5/5/5
f 7/7/7 9/9/9 8/8/8
f 10/10/10 12/12/12 11/11/11
f 13/13/13 15/15/15 14/14/14
f 16/16/16 18/18/18 17/17/17
f 19/19/19 21/21/21 20/20/20
f 22/22/22 24/24/24 23/23/23
f 25/25/25 27/27/27 26/26/26
f 28/28/28 30/30/30 29/29/29
f 31/31/31 33/33/33 32/32/32
f 34/34/34 36/36/36 35/35/35
f 37/37/37 39/39/39 38/38/38
f 40/40/40 42/42/42 41/41/41
f 43/43/43 45/45/45 44/44/44
f 46/46/46 48/48/48 47/47/47
f 49/49/49 51/51/51 50/50/50
f 52/52/52 54/54/54 53/53/53
f 55/55/55 57/57/57 56/56/56
f 58/58/58 60/60/60 59/59/59
