# Retail Empire Tycoon TownKit; metres; ground-centred pivot
mtllib ../TownKit.mtl
o Pine
v -0.16 0 0
v -0.11 3 0
v -0.055 3 0.095263
v -0.16 0 0
v -0.055 3 0.095263
v -0.08 0 0.138564
v 0 0 0
v -0.16 0 0
v -0.08 0 0.138564
v 0 3 0
v -0.055 3 0.095263
v -0.11 3 0
v -0.08 0 0.138564
v -0.055 3 0.095263
v 0.055 3 0.095263
v -0.08 0 0.138564
v 0.055 3 0.095263
v 0.08 0 0.138564
v 0 0 0
v -0.08 0 0.138564
v 0.08 0 0.138564
v 0 3 0
v 0.055 3 0.095263
v -0.055 3 0.095263
v 0.08 0 0.138564
v 0.055 3 0.095263
v 0.11 3 0
v 0.08 0 0.138564
v 0.11 3 0
v 0.16 0 0
v 0 0 0
v 0.08 0 0.138564
v 0.16 0 0
v 0 3 0
v 0.11 3 0
v 0.055 3 0.095263
v 0.16 0 0
v 0.11 3 0
v 0.055 3 -0.095263
v 0.16 0 0
v 0.055 3 -0.095263
v 0.08 0 -0.138564
v 0 0 0
v 0.16 0 0
v 0.08 0 -0.138564
v 0 3 0
v 0.055 3 -0.095263
v 0.11 3 0
v 0.08 0 -0.138564
v 0.055 3 -0.095263
v -0.055 3 -0.095263
v 0.08 0 -0.138564
v -0.055 3 -0.095263
v -0.08 0 -0.138564
v 0 0 0
v 0.08 0 -0.138564
v -0.08 0 -0.138564
v 0 3 0
v -0.055 3 -0.095263
v 0.055 3 -0.095263
v -0.08 0 -0.138564
v -0.055 3 -0.095263
v -0.11 3 0
v -0.08 0 -0.138564
v -0.11 3 0
v -0.16 0 0
v 0 0 0
v -0.08 0 -0.138564
v -0.16 0 0
v 0 3 0
v -0.11 3 0
v -0.055 3 -0.095263
v -1.65 0.95 0
v 0 3.05 0
v -1.028758 0.95 1.290022
v 0 0.95 0
v -1.65 0.95 0
v -1.028758 0.95 1.290022
v -1.028758 0.95 1.290022
v 0 3.05 0
v 0.36716 0.95 1.608631
v 0 0.95 0
v -1.028758 0.95 1.290022
v 0.36716 0.95 1.608631
v 0.36716 0.95 1.608631
v 0 3.05 0
v 1.486599 0.95 0.715908
v 0 0.95 0
v 0.36716 0.95 1.608631
v 1.486599 0.95 0.715908
v 1.486599 0.95 0.715908
v 0 3.05 0
v 1.486599 0.95 -0.715908
v 0 0.95 0
v 1.486599 0.95 0.715908
v 1.486599 0.95 -0.715908
v 1.486599 0.95 -0.715908
v 0 3.05 0
v 0.36716 0.95 -1.608631
v 0 0.95 0
v 1.486599 0.95 -0.715908
v 0.36716 0.95 -1.608631
v 0.36716 0.95 -1.608631
v 0 3.05 0
v -1.028759 0.95 -1.290022
v 0 0.95 0
v 0.36716 0.95 -1.608631
v -1.028759 0.95 -1.290022
v -1.028759 0.95 -1.290022
v 0 3.05 0
v -1.65 0.95 0
v 0 0.95 0
v -1.028759 0.95 -1.290022
v -1.65 0.95 0
v -1.32 1.8 0
v 0 3.9 0
v -0.823007 1.8 1.032018
v 0 1.8 0
v -1.32 1.8 0
v -0.823007 1.8 1.032018
v -0.823007 1.8 1.032018
v 0 3.9 0
v 0.293728 1.8 1.286905
v 0 1.8 0
v -0.823007 1.8 1.032018
v 0.293728 1.8 1.286905
v 0.293728 1.8 1.286905
v 0 3.9 0
v 1.189279 1.8 0.572726
v 0 1.8 0
v 0.293728 1.8 1.286905
v 1.189279 1.8 0.572726
v 1.189279 1.8 0.572726
v 0 3.9 0
v 1.189279 1.8 -0.572727
v 0 1.8 0
v 1.189279 1.8 0.572726
v 1.189279 1.8 -0.572727
v 1.189279 1.8 -0.572727
v 0 3.9 0
v 0.293728 1.8 -1.286905
v 0 1.8 0
v 1.189279 1.8 -0.572727
v 0.293728 1.8 -1.286905
v 0.293728 1.8 -1.286905
v 0 3.9 0
v -0.823007 1.8 -1.032017
v 0 1.8 0
v 0.293728 1.8 -1.286905
v -0.823007 1.8 -1.032017
v -0.823007 1.8 -1.032017
v 0 3.9 0
v -1.32 1.8 0
v 0 1.8 0
v -0.823007 1.8 -1.032017
v -1.32 1.8 0
v -0.99 2.65 0
v 0 4.75 0
v -0.617255 2.65 0.774013
v 0 2.65 0
v -0.99 2.65 0
v -0.617255 2.65 0.774013
v -0.617255 2.65 0.774013
v 0 4.75 0
v 0.220296 2.65 0.965179
v 0 2.65 0
v -0.617255 2.65 0.774013
v 0.220296 2.65 0.965179
v 0.220296 2.65 0.965179
v 0 4.75 0
v 0.891959 2.65 0.429545
v 0 2.65 0
v 0.220296 2.65 0.965179
v 0.891959 2.65 0.429545
v 0.891959 2.65 0.429545
v 0 4.75 0
v 0.891959 2.65 -0.429545
v 0 2.65 0
v 0.891959 2.65 0.429545
v 0.891959 2.65 -0.429545
v 0.891959 2.65 -0.429545
v 0 4.75 0
v 0.220296 2.65 -0.965179
v 0 2.65 0
v 0.891959 2.65 -0.429545
v 0.220296 2.65 -0.965179
v 0.220296 2.65 -0.965179
v 0 4.75 0
v -0.617255 2.65 -0.774013
v 0 2.65 0
v 0.220296 2.65 -0.965179
v -0.617255 2.65 -0.774013
v -0.617255 2.65 -0.774013
v 0 4.75 0
v -0.99 2.65 0
v 0 2.65 0
v -0.617255 2.65 -0.774013
v -0.99 2.65 0
v -0.66 3.5 0
v 0 5.6 0
v -0.411503 3.5 0.516009
v 0 3.5 0
v -0.66 3.5 0
v -0.411503 3.5 0.516009
v -0.411503 3.5 0.516009
v 0 5.6 0
v 0.146864 3.5 0.643452
v 0 3.5 0
v -0.411503 3.5 0.516009
v 0.146864 3.5 0.643452
v 0.146864 3.5 0.643452
v 0 5.6 0
v 0.594639 3.5 0.286363
v 0 3.5 0
v 0.146864 3.5 0.643452
v 0.594639 3.5 0.286363
v 0.594639 3.5 0.286363
v 0 5.6 0
v 0.594639 3.5 -0.286363
v 0 3.5 0
v 0.594639 3.5 0.286363
v 0.594639 3.5 -0.286363
v 0.594639 3.5 -0.286363
v 0 5.6 0
v 0.146864 3.5 -0.643452
v 0 3.5 0
v 0.594639 3.5 -0.286363
v 0.146864 3.5 -0.643452
v 0.146864 3.5 -0.643452
v 0 5.6 0
v -0.411503 3.5 -0.516009
v 0 3.5 0
v 0.146864 3.5 -0.643452
v -0.411503 3.5 -0.516009
v -0.411503 3.5 -0.516009
v 0 5.6 0
v -0.66 3.5 0
v 0 3.5 0
v -0.411503 3.5 -0.516009
v -0.66 3.5 0
vt 0.453125 0.5
vt 0.453125 0.5
vt 0.453125 0.5
vt 0.453125 0.5
vt 0.453125 0.5
vt 0.453125 0.5
vt 0.453125 0.5
vt 0.453125 0.5
vt 0.453125 0.5
vt 0.453125 0.5
vt 0.453125 0.5
vt 0.453125 0.5
vt 0.453125 0.5
vt 0.453125 0.5
vt 0.453125 0.5
vt 0.453125 0.5
vt 0.453125 0.5
vt 0.453125 0.5
vt 0.453125 0.5
vt 0.453125 0.5
vt 0.453125 0.5
vt 0.453125 0.5
vt 0.453125 0.5
vt 0.453125 0.5
vt 0.453125 0.5
vt 0.453125 0.5
vt 0.453125 0.5
vt 0.453125 0.5
vt 0.453125 0.5
vt 0.453125 0.5
vt 0.453125 0.5
vt 0.453125 0.5
vt 0.453125 0.5
vt 0.453125 0.5
vt 0.453125 0.5
vt 0.453125 0.5
vt 0.453125 0.5
vt 0.453125 0.5
vt 0.453125 0.5
vt 0.453125 0.5
vt 0.453125 0.5
vt 0.453125 0.5
vt 0.453125 0.5
vt 0.453125 0.5
vt 0.453125 0.5
vt 0.453125 0.5
vt 0.453125 0.5
vt 0.453125 0.5
vt 0.453125 0.5
vt 0.453125 0.5
vt 0.453125 0.5
vt 0.453125 0.5
vt 0.453125 0.5
vt 0.453125 0.5
vt 0.453125 0.5
vt 0.453125 0.5
vt 0.453125 0.5
vt 0.453125 0.5
vt 0.453125 0.5
vt 0.453125 0.5
vt 0.453125 0.5
vt 0.453125 0.5
vt 0.453125 0.5
vt 0.453125 0.5
vt 0.453125 0.5
vt 0.453125 0.5
vt 0.453125 0.5
vt 0.453125 0.5
vt 0.453125 0.5
vt 0.453125 0.5
vt 0.453125 0.5
vt 0.453125 0.5
vt 0.421875 0.5
vt 0.421875 0.5
vt 0.421875 0.5
vt 0.421875 0.5
vt 0.421875 0.5
vt 0.421875 0.5
vt 0.421875 0.5
vt 0.421875 0.5
vt 0.421875 0.5
vt 0.421875 0.5
vt 0.421875 0.5
vt 0.421875 0.5
vt 0.421875 0.5
vt 0.421875 0.5
vt 0.421875 0.5
vt 0.421875 0.5
vt 0.421875 0.5
vt 0.421875 0.5
vt 0.421875 0.5
vt 0.421875 0.5
vt 0.421875 0.5
vt 0.421875 0.5
vt 0.421875 0.5
vt 0.421875 0.5
vt 0.421875 0.5
vt 0.421875 0.5
vt 0.421875 0.5
vt 0.421875 0.5
vt 0.421875 0.5
vt 0.421875 0.5
vt 0.421875 0.5
vt 0.421875 0.5
vt 0.421875 0.5
vt 0.421875 0.5
vt 0.421875 0.5
vt 0.421875 0.5
vt 0.421875 0.5
vt 0.421875 0.5
vt 0.421875 0.5
vt 0.421875 0.5
vt 0.421875 0.5
vt 0.421875 0.5
vt 0.421875 0.5
vt 0.421875 0.5
vt 0.421875 0.5
vt 0.421875 0.5
vt 0.421875 0.5
vt 0.421875 0.5
vt 0.421875 0.5
vt 0.421875 0.5
vt 0.421875 0.5
vt 0.421875 0.5
vt 0.421875 0.5
vt 0.421875 0.5
vt 0.421875 0.5
vt 0.421875 0.5
vt 0.421875 0.5
vt 0.421875 0.5
vt 0.421875 0.5
vt 0.421875 0.5
vt 0.421875 0.5
vt 0.421875 0.5
vt 0.421875 0.5
vt 0.421875 0.5
vt 0.421875 0.5
vt 0.421875 0.5
vt 0.421875 0.5
vt 0.421875 0.5
vt 0.421875 0.5
vt 0.421875 0.5
vt 0.421875 0.5
vt 0.421875 0.5
vt 0.421875 0.5
vt 0.421875 0.5
vt 0.421875 0.5
vt 0.421875 0.5
vt 0.421875 0.5
vt 0.421875 0.5
vt 0.421875 0.5
vt 0.421875 0.5
vt 0.421875 0.5
vt 0.421875 0.5
vt 0.421875 0.5
vt 0.421875 0.5
vt 0.421875 0.5
vt 0.421875 0.5
vt 0.421875 0.5
vt 0.421875 0.5
vt 0.421875 0.5
vt 0.421875 0.5
vt 0.421875 0.5
vt 0.421875 0.5
vt 0.421875 0.5
vt 0.421875 0.5
vt 0.421875 0.5
vt 0.421875 0.5
vt 0.421875 0.5
vt 0.421875 0.5
vt 0.421875 0.5
vt 0.421875 0.5
vt 0.421875 0.5
vt 0.421875 0.5
vt 0.421875 0.5
vt 0.421875 0.5
vt 0.421875 0.5
vt 0.421875 0.5
vt 0.421875 0.5
vt 0.421875 0.5
vt 0.421875 0.5
vt 0.421875 0.5
vt 0.421875 0.5
vt 0.421875 0.5
vt 0.421875 0.5
vt 0.421875 0.5
vt 0.421875 0.5
vt 0.421875 0.5
vt 0.421875 0.5
vt 0.421875 0.5
vt 0.421875 0.5
vt 0.421875 0.5
vt 0.421875 0.5
vt 0.421875 0.5
vt 0.421875 0.5
vt 0.421875 0.5
vt 0.421875 0.5
vt 0.421875 0.5
vt 0.421875 0.5
vt 0.421875 0.5
vt 0.421875 0.5
vt 0.421875 0.5
vt 0.421875 0.5
vt 0.421875 0.5
vt 0.421875 0.5
vt 0.421875 0.5
vt 0.421875 0.5
vt 0.421875 0.5
vt 0.421875 0.5
vt 0.421875 0.5
vt 0.421875 0.5
vt 0.421875 0.5
vt 0.421875 0.5
vt 0.421875 0.5
vt 0.421875 0.5
vt 0.421875 0.5
vt 0.421875 0.5
vt 0.421875 0.5
vt 0.421875 0.5
vt 0.421875 0.5
vt 0.421875 0.5
vt 0.421875 0.5
vt 0.421875 0.5
vt 0.421875 0.5
vt 0.421875 0.5
vt 0.421875 0.5
vt 0.421875 0.5
vt 0.421875 0.5
vt 0.421875 0.5
vt 0.421875 0.5
vt 0.421875 0.5
vt 0.421875 0.5
vt 0.421875 0.5
vt 0.421875 0.5
vt 0.421875 0.5
vt 0.421875 0.5
vt 0.421875 0.5
vt 0.421875 0.5
vt 0.421875 0.5
vt 0.421875 0.5
vn -0.865935 0.014432 0.499948
vn -0.865935 0.014432 0.499948
vn -0.865935 0.014432 0.499948
vn -0.865935 0.014432 0.499948
vn -0.865935 0.014432 0.499948
vn -0.865935 0.014432 0.499948
vn 0 -1 0
vn 0 -1 0
vn 0 -1 0
vn 0 1 0
vn 0 1 0
vn 0 1 0
vn 0 0.014432 0.999896
vn 0 0.014432 0.999896
vn 0 0.014432 0.999896
vn 0 0.014432 0.999896
vn 0 0.014432 0.999896
vn 0 0.014432 0.999896
vn 0 -1 0
vn 0 -1 0
vn 0 -1 0
vn 0 1 0
vn 0 1 0
vn 0 1 0
vn 0.865935 0.014432 0.499948
vn 0.865935 0.014432 0.499948
vn 0.865935 0.014432 0.499948
vn 0.865935 0.014432 0.499948
vn 0.865935 0.014432 0.499948
vn 0.865935 0.014432 0.499948
vn 0 -1 0
vn 0 -1 0
vn 0 -1 0
vn 0 1 0
vn 0 1 0
vn 0 1 0
vn 0.865935 0.014432 -0.499948
vn 0.865935 0.014432 -0.499948
vn 0.865935 0.014432 -0.499948
vn 0.865935 0.014432 -0.499948
vn 0.865935 0.014432 -0.499948
vn 0.865935 0.014432 -0.499948
vn 0 -1 0
vn 0 -1 0
vn 0 -1 0
vn 0 1 0
vn 0 1 0
vn 0 1 0
vn 0 0.014432 -0.999896
vn 0 0.014432 -0.999896
vn 0 0.014432 -0.999896
vn 0 0.014432 -0.999896
vn 0 0.014432 -0.999896
vn 0 0.014432 -0.999896
vn 0 -1 0
vn 0 -1 0
vn 0 -1 0
vn 0 1 0
vn 0 1 0
vn 0 1 0
vn -0.865935 0.014432 -0.499948
vn -0.865935 0.014432 -0.499948
vn -0.865935 0.014432 -0.499948
vn -0.865935 0.014432 -0.499948
vn -0.865935 0.014432 -0.499948
vn -0.865935 0.014432 -0.499948
vn 0 -1 0
vn 0 -1 0
vn 0 -1 0
vn 0 1 0
vn 0 1 0
vn 0 1 0
vn -0.735362 0.577784 0.354131
vn -0.735362 0.577784 0.354131
vn -0.735362 0.577784 0.354131
vn 0 -1 0
vn 0 -1 0
vn 0 -1 0
vn -0.181619 0.577784 0.795726
vn -0.181619 0.577784 0.795726
vn -0.181619 0.577784 0.795726
vn 0 -1 0
vn 0 -1 0
vn 0 -1 0
vn 0.508886 0.577784 0.638123
vn 0.508886 0.577784 0.638123
vn 0.508886 0.577784 0.638123
vn 0 -1 0
vn 0 -1 0
vn 0 -1 0
vn 0.81619 0.577784 0
vn 0.81619 0.577784 0
vn 0.81619 0.577784 0
vn 0 -1 0
vn 0 -1 0
vn 0 -1 0
vn 0.508886 0.577784 -0.638123
vn 0.508886 0.577784 -0.638123
vn 0.508886 0.577784 -0.638123
vn 0 -1 0
vn 0 -1 0
vn 0 -1 0
vn -0.181619 0.577784 -0.795726
vn -0.181619 0.577784 -0.795726
vn -0.181619 0.577784 -0.795726
vn 0 -1 0
vn 0 -1 0
vn 0 -1 0
vn -0.735362 0.577784 -0.354131
vn -0.735362 0.577784 -0.354131
vn -0.735362 0.577784 -0.354131
vn 0 -1 0
vn 0 -1 0
vn 0 -1 0
vn -0.783978 0.492786 0.377544
vn -0.783978 0.492786 0.377544
vn -0.783978 0.492786 0.377544
vn 0 -1 0
vn 0 -1 0
vn 0 -1 0
vn -0.193627 0.492786 0.848334
vn -0.193627 0.492786 0.848334
vn -0.193627 0.492786 0.848334
vn 0 -1 0
vn 0 -1 0
vn 0 -1 0
vn 0.54253 0.492786 0.680311
vn 0.54253 0.492786 0.680311
vn 0.54253 0.492786 0.680311
vn 0 -1 0
vn 0 -1 0
vn 0 -1 0
vn 0.87015 0.492786 0
vn 0.87015 0.492786 0
vn 0.87015 0.492786 0
vn 0 -1 0
vn 0 -1 0
vn 0 -1 0
vn 0.54253 0.492786 -0.680311
vn 0.54253 0.492786 -0.680311
vn 0.54253 0.492786 -0.680311
vn 0 -1 0
vn 0 -1 0
vn 0 -1 0
vn -0.193627 0.492786 -0.848334
vn -0.193627 0.492786 -0.848334
vn -0.193627 0.492786 -0.848334
vn 0 -1 0
vn 0 -1 0
vn 0 -1 0
vn -0.783978 0.492786 -0.377544
vn -0.783978 0.492786 -0.377544
vn -0.783978 0.492786 -0.377544
vn 0 -1 0
vn 0 -1 0
vn 0 -1 0
vn -0.829266 0.39094 0.399354
vn -0.829266 0.39094 0.399354
vn -0.829266 0.39094 0.399354
vn 0 -1 0
vn 0 -1 0
vn 0 -1 0
vn -0.204812 0.39094 0.89734
vn -0.204812 0.39094 0.89734
vn -0.204812 0.39094 0.89734
vn 0 -1 0
vn 0 -1 0
vn 0 -1 0
vn 0.57387 0.39094 0.71961
vn 0.57387 0.39094 0.71961
vn 0.57387 0.39094 0.71961
vn 0 -1 0
vn 0 -1 0
vn 0 -1 0
vn 0.920416 0.39094 0
vn 0.920416 0.39094 0
vn 0.920416 0.39094 0
vn 0 -1 0
vn 0 -1 0
vn 0 -1 0
vn 0.57387 0.39094 -0.71961
vn 0.57387 0.39094 -0.71961
vn 0.57387 0.39094 -0.71961
vn 0 -1 0
vn 0 -1 0
vn 0 -1 0
vn -0.204812 0.39094 -0.89734
vn -0.204812 0.39094 -0.89734
vn -0.204812 0.39094 -0.89734
vn 0 -1 0
vn 0 -1 0
vn 0 -1 0
vn -0.829266 0.39094 -0.399353
vn -0.829266 0.39094 -0.399353
vn -0.829266 0.39094 -0.399353
vn 0 -1 0
vn 0 -1 0
vn 0 -1 0
vn -0.866885 0.27245 0.41747
vn -0.866885 0.27245 0.41747
vn -0.866885 0.27245 0.41747
vn 0 -1 0
vn 0 -1 0
vn 0 -1 0
vn -0.214103 0.27245 0.938047
vn -0.214103 0.27245 0.938047
vn -0.214103 0.27245 0.938047
vn 0 -1 0
vn 0 -1 0
vn 0 -1 0
vn 0.599903 0.27245 0.752255
vn 0.599903 0.27245 0.752255
vn 0.599903 0.27245 0.752255
vn 0 -1 0
vn 0 -1 0
vn 0 -1 0
vn 0.96217 0.27245 0
vn 0.96217 0.27245 0
vn 0.96217 0.27245 0
vn 0 -1 0
vn 0 -1 0
vn 0 -1 0
vn 0.599903 0.27245 -0.752255
vn 0.599903 0.27245 -0.752255
vn 0.599903 0.27245 -0.752255
vn 0 -1 0
vn 0 -1 0
vn 0 -1 0
vn -0.214103 0.27245 -0.938046
vn -0.214103 0.27245 -0.938046
vn -0.214103 0.27245 -0.938046
vn 0 -1 0
vn 0 -1 0
vn 0 -1 0
vn -0.866885 0.27245 -0.41747
vn -0.866885 0.27245 -0.41747
vn -0.866885 0.27245 -0.41747
vn 0 -1 0
vn 0 -1 0
vn 0 -1 0
usemtl TownPalette
f 1/1/1 3/3/3 2/2/2
f 4/4/4 6/6/6 5/5/5
f 7/7/7 9/9/9 8/8/8
f 10/10/10 12/12/12 11/11/11
f 13/13/13 15/15/15 14/14/14
f 16/16/16 18/18/18 17/17/17
f 19/19/19 21/21/21 20/20/20
f 22/22/22 24/24/24 23/23/23
f 25/25/25 27/27/27 26/26/26
f 28/28/28 30/30/30 29/29/29
f 31/31/31 33/33/33 32/32/32
f 34/34/34 36/36/36 35/35/35
f 37/37/37 39/39/39 38/38/38
f 40/40/40 42/42/42 41/41/41
f 43/43/43 45/45/45 44/44/44
f 46/46/46 48/48/48 47/47/47
f 49/49/49 51/51/51 50/50/50
f 52/52/52 54/54/54 53/53/53
f 55/55/55 57/57/57 56/56/56
f 58/58/58 60/60/60 59/59/59
f 61/61/61 63/63/63 62/62/62
f 64/64/64 66/66/66 65/65/65
f 67/67/67 69/69/69 68/68/68
f 70/70/70 72/72/72 71/71/71
f 73/73/73 75/75/75 74/74/74
f 76/76/76 78/78/78 77/77/77
f 79/79/79 81/81/81 80/80/80
f 82/82/82 84/84/84 83/83/83
f 85/85/85 87/87/87 86/86/86
f 88/88/88 90/90/90 89/89/89
f 91/91/91 93/93/93 92/92/92
f 94/94/94 96/96/96 95/95/95
f 97/97/97 99/99/99 98/98/98
f 100/100/100 102/102/102 101/101/101
f 103/103/103 105/105/105 104/104/104
f 106/106/106 108/108/108 107/107/107
f 109/109/109 111/111/111 110/110/110
f 112/112/112 114/114/114 113/113/113
f 115/115/115 117/117/117 116/116/116
f 118/118/118 120/120/120 119/119/119
f 121/121/121 123/123/123 122/122/122
f 124/124/124 126/126/126 125/125/125
f 127/127/127 129/129/129 128/128/128
f 130/130/130 132/132/132 131/131/131
f 133/133/133 135/135/135 134/134/134
f 136/136/136 138/138/138 137/137/137
f 139/139/139 141/141/141 140/140/140
f 142/142/142 144/144/144 143/143/143
f 145/145/145 147/147/147 146/146/146
f 148/148/148 150/150/150 149/149/149
f 151/151/151 153/153/153 152/152/152
f 154/154/154 156/156/156 155/155/155
f 157/157/157 159/159/159 158/158/158
f 160/160/160 162/162/162 161/161/161
f 163/163/163 165/165/165 164/164/164
f 166/166/166 168/168/168 167/167/167
f 169/169/169 171/171/171 170/170/170
f 172/172/172 174/174/174 173/173/173
f 175/175/175 177/177/177 176/176/176
f 178/178/178 180/180/180 179/179/179
f 181/181/181 183/183/183 182/182/182
f 184/184/184 186/186/186 185/185/185
f 187/187/187 189/189/189 188/188/188
f 190/190/190 192/192/192 191/191/191
f 193/193/193 195/195/195 194/194/194
f 196/196/196 198/198/198 197/197/197
f 199/199/199 201/201/201 200/200/200
f 202/202/202 204/204/204 203/203/203
f 205/205/205 207/207/207 206/206/206
f 208/208/208 210/210/210 209/209/209
f 211/211/211 213/213/213 212/212/212
f 214/214/214 216/216/216 215/215/215
f 217/217/217 219/219/219 218/218/218
f 220/220/220 222/222/222 221/221/221
f 223/223/223 225/225/225 224/224/224
f 226/226/226 228/228/228 227/227/227
f 229/229/229 231/231/231 230/230/230
f 232/232/232 234/234/234 233/233/233
f 235/235/235 237/237/237 236/236/236
f 238/238/238 240/240/240 239/239/239
