# Retail Empire Tycoon TownKit; metres; ground-centred pivot
mtllib ../TownKit.mtl
o LaneMarkings
v 0.06 0 -4.8
v -0.06 0 -4.8
v -0.06 0 -5.6
v 0.06 0 -4.8
v -0.06 0 -5.6
v 0.06 0 -5.6
v 0.06 0 -3.3
v -0.06 0 -3.3
v -0.06 0 -4.1
v 0.06 0 -3.3
v -0.06 0 -4.1
v 0.06 0 -4.1
v 0.06 0 -1.8
v -0.06 0 -1.8
v -0.06 0 -2.6
v 0.06 0 -1.8
v -0.06 0 -2.6
v 0.06 0 -2.6
v 0.06 0 -0.3
v -0.06 0 -0.3
v -0.06 0 -1.1
v 0.06 0 -0.3
v -0.06 0 -1.1
v 0.06 0 -1.1
v 0.06 0 1.2
v -0.06 0 1.2
v -0.06 0 0.4
v 0.06 0 1.2
v -0.06 0 0.4
v 0.06 0 0.4
v 0.06 0 2.7
v -0.06 0 2.7
v -0.06 0 1.9
v 0.06 0 2.7
v -0.06 0 1.9
v 0.06 0 1.9
v 0.06 0 4.2
v -0.06 0 4.2
v -0.06 0 3.4
v 0.06 0 4.2
v -0.06 0 3.4
v 0.06 0 3.4
v 0.06 0 5.7
v -0.06 0 5.7
v -0.06 0 4.9
v 0.06 0 5.7
v -0.06 0 4.9
v 0.06 0 4.9
vt 0.203125 0.5
vt 0.203125 0.5
vt 0.203125 0.5
vt 0.203125 0.5
vt 0.203125 0.5
vt 0.203125 0.5
vt 0.203125 0.5
vt 0.203125 0.5
vt 0.203125 0.5
vt 0.203125 0.5
vt 0.203125 0.5
vt 0.203125 0.5
vt 0.203125 0.5
vt 0.203125 0.5
vt 0.203125 0.5
vt 0.203125 0.5
vt 0.203125 0.5
vt 0.203125 0.5
vt 0.203125 0.5
vt 0.203125 0.5
vt 0.203125 0.5
vt 0.203125 0.5
vt 0.203125 0.5
vt 0.203125 0.5
vt 0.203125 0.5
vt 0.203125 0.5
vt 0.203125 0.5
vt 0.203125 0.5
vt 0.203125 0.5
vt 0.203125 0.5
vt 0.203125 0.5
vt 0.203125 0.5
vt 0.203125 0.5
vt 0.203125 0.5
vt 0.203125 0.5
vt 0.203125 0.5
vt 0.203125 0.5
vt 0.203125 0.5
vt 0.203125 0.5
vt 0.203125 0.5
vt 0.203125 0.5
vt 0.203125 0.5
vt 0.203125 0.5
vt 0.203125 0.5
vt 0.203125 0.5
vt 0.203125 0.5
vt 0.203125 0.5
vt 0.203125 0.5
vn 0 1 0
vn 0 1 0
vn 0 1 0
vn 0 1 0
vn 0 1 0
vn 0 1 0
vn 0 1 0
vn 0 1 0
vn 0 1 0
vn 0 1 0
vn 0 1 0
vn 0 1 0
vn 0 1 0
vn 0 1 0
vn 0 1 0
vn 0 1 0
vn 0 1 0
vn 0 1 0
vn 0 1 0
vn 0 1 0
vn 0 1 0
vn 0 1 0
vn 0 1 0
vn 0 1 0
vn 0 1 0
vn 0 1 0
vn 0 1 0
vn 0 1 0
vn 0 1 0
vn 0 1 0
vn 0 1 0
vn 0 1 0
vn 0 1 0
vn 0 1 0
vn 0 1 0
vn 0 1 0
vn 0 1 0
vn 0 1 0
vn 0 1 0
vn 0 1 0
vn 0 1 0
vn 0 1 0
vn 0 1 0
vn 0 1 0
vn 0 1 0
vn 0 1 0
vn 0 1 0
vn 0 1 0
usemtl TownPalette
f 1/1/1 3/3/3 2/2/2
f 4/4/4 6/6/6 5/5/5
f 7/7/7 9/9/9 8/8/8
f 10/10/10 12/12/12 11/11/11
f 13/13/13 15/15/15 14/14/14
f 16/16/16 18/18/18 17/17/17
f 19/19/19 21/21/21 20/20/20
f 22/22/22 24/24/24 23/23/23
f 25/25/25 27/27/27 26/26/26
f 28/28/28 30/30/30 29/29/29
f 31/31/31 33/33/33 32/32/32
f 34/34/34 36/36/36 35/35/35
f 37/37/37 39/39/39 38/38/38
f 40/40/40 42/42/42 41/41/41
f 43/43/43 45/45/45 44/44/44
f 46/46/46 48/48/48 47/47/47
