# Retail Empire Tycoon TownKit; metres; ground-centred pivot
mtllib ../TownKit.mtl
o RoadCorner
v 6 0 6
v -6 0 6
v -6 0 -6
v 6 0 6
v -6 0 -6
v 6 0 -6
v -4 0.03 6
v -4.009631 0.03 5.803966
v 3.951847 0.03 5.01983
v -4 0.03 6
v 3.951847 0.03 5.01983
v 4 0.03 5.999999
v -4.009631 0.03 5.803966
v -4.038429 0.03 5.609819
v 3.807853 0.03 4.049098
v -4.009631 0.03 5.803966
v 3.807853 0.03 4.049098
v 3.951847 0.03 5.01983
v -4.038429 0.03 5.609819
v -4.086119 0.03 5.419431
v 3.569404 0.03 3.097154
v -4.038429 0.03 5.609819
v 3.569404 0.03 3.097154
v 3.807853 0.03 4.049098
v -4.086119 0.03 5.419431
v -4.152241 0.03 5.234633
v 3.238795 0.03 2.173166
v -4.086119 0.03 5.419431
v 3.238795 0.03 2.173166
v 3.569404 0.03 3.097154
v -4.152241 0.03 5.234633
v -4.236157 0.03 5.057207
v 2.819212 0.03 1.286032
v -4.152241 0.03 5.234633
v 2.819212 0.03 1.286032
v 3.238795 0.03 2.173166
v -4.236157 0.03 5.057207
v -4.337061 0.03 4.888859
v 2.314695 0.03 0.444297
v -4.236157 0.03 5.057207
v 2.314695 0.03 0.444297
v 2.819212 0.03 1.286032
v -4.337061 0.03 4.888859
v -4.453979 0.03 4.731214
v 1.730105 0.03 -0.343932
v -4.337061 0.03 4.888859
v 1.730105 0.03 -0.343932
v 2.314695 0.03 0.444297
v -4.453979 0.03 4.731214
v -4.585786 0.03 4.585787
v 1.071068 0.03 -1.071067
v -4.453979 0.03 4.731214
v 1.071068 0.03 -1.071067
v 1.730105 0.03 -0.343932
v -4.585786 0.03 4.585787
v -4.731214 0.03 4.453979
v 0.343933 0.03 -1.730104
v -4.585786 0.03 4.585787
v 0.343933 0.03 -1.730104
v 1.071068 0.03 -1.071067
v -4.731214 0.03 4.453979
v -4.888859 0.03 4.337061
v -0.444296 0.03 -2.314694
v -4.731214 0.03 4.453979
v -0.444296 0.03 -2.314694
v 0.343933 0.03 -1.730104
v -4.888859 0.03 4.337061
v -5.057207 0.03 4.236157
v -1.286033 0.03 -2.819213
v -4.888859 0.03 4.337061
v -1.286033 0.03 -2.819213
v -0.444296 0.03 -2.314694
v -5.057207 0.03 4.236157
v -5.234633 0.03 4.152241
v -2.173164 0.03 -3.238795
v -5.057207 0.03 4.236157
v -2.173164 0.03 -3.238795
v -1.286033 0.03 -2.819213
v -5.234633 0.03 4.152241
v -5.419431 0.03 4.086119
v -3.097155 0.03 -3.569404
v -5.234633 0.03 4.152241
v -3.097155 0.03 -3.569404
v -2.173164 0.03 -3.238795
v -5.419431 0.03 4.086119
v -5.609819 0.03 4.038429
v -4.049096 0.03 -3.807853
v -5.419431 0.03 4.086119
v -4.049096 0.03 -3.807853
v -3.097155 0.03 -3.569404
v -5.609819 0.03 4.038429
v -5.803965 0.03 4.009631
v -5.019826 0.03 -3.951847
v -5.609819 0.03 4.038429
v -5.019826 0.03 -3.951847
v -4.049096 0.03 -3.807853
v -5.803965 0.03 4.009631
v -6 0.03 4
v -6 0.03 -4
v -5.803965 0.03 4.009631
v -6 0.03 -4
v -5.019826 0.03 -3.951847
v 4 0.13 5.999999
v 3.951847 0.13 5.01983
v 5.942217 0.13 4.823796
v 4 0.13 5.999999
v 5.942217 0.13 4.823796
v 6 0.13 5.999999
v 3.951847 0.13 5.01983
v 3.807853 0.13 4.049098
v 5.769423 0.13 3.658917
v 3.951847 0.13 5.01983
v 5.769423 0.13 3.658917
v 5.942217 0.13 4.823796
v 3.807853 0.13 4.049098
v 3.569404 0.13 3.097154
v 5.483284 0.13 2.516584
v 3.807853 0.13 4.049098
v 5.483284 0.13 2.516584
v 5.769423 0.13 3.658917
v 3.569404 0.13 3.097154
v 3.238795 0.13 2.173166
v 5.086554 0.13 1.407799
v 3.569404 0.13 3.097154
v 5.086554 0.13 1.407799
v 5.483284 0.13 2.516584
v 3.238795 0.13 2.173166
v 2.819212 0.13 1.286032
v 4.583055 0.13 0.343239
v 3.238795 0.13 2.173166
v 4.583055 0.13 0.343239
v 5.086554 0.13 1.407799
v 2.819212 0.13 1.286032
v 2.314695 0.13 0.444297
v 3.977634 0.13 -0.666843
v 2.819212 0.13 1.286032
v 3.977634 0.13 -0.666843
v 4.583055 0.13 0.343239
v 2.314695 0.13 0.444297
v 1.730105 0.13 -0.343932
v 3.276127 0.13 -1.612719
v 2.314695 0.13 0.444297
v 3.276127 0.13 -1.612719
v 3.977634 0.13 -0.666843
v 1.730105 0.13 -0.343932
v 1.071068 0.13 -1.071067
v 2.485282 0.13 -2.485281
v 1.730105 0.13 -0.343932
v 2.485282 0.13 -2.485281
v 3.276127 0.13 -1.612719
v 1.071068 0.13 -1.071067
v 0.343933 0.13 -1.730104
v 1.61272 0.13 -3.276125
v 1.071068 0.13 -1.071067
v 1.61272 0.13 -3.276125
v 2.485282 0.13 -2.485281
v 0.343933 0.13 -1.730104
v -0.444296 0.13 -2.314694
v 0.666845 0.13 -3.977633
v 0.343933 0.13 -1.730104
v 0.666845 0.13 -3.977633
v 1.61272 0.13 -3.276125
v -0.444296 0.13 -2.314694
v -1.286033 0.13 -2.819213
v -0.34324 0.13 -4.583055
v -0.444296 0.13 -2.314694
v -0.34324 0.13 -4.583055
v 0.666845 0.13 -3.977633
v -1.286033 0.13 -2.819213
v -2.173164 0.13 -3.238795
v -1.407797 0.13 -5.086554
v -1.286033 0.13 -2.819213
v -1.407797 0.13 -5.086554
v -0.34324 0.13 -4.583055
v -2.173164 0.13 -3.238795
v -3.097155 0.13 -3.569404
v -2.516585 0.13 -5.483284
v -2.173164 0.13 -3.238795
v -2.516585 0.13 -5.483284
v -1.407797 0.13 -5.086554
v -3.097155 0.13 -3.569404
v -4.049096 0.13 -3.807853
v -3.658916 0.13 -5.769423
v -3.097155 0.13 -3.569404
v -3.658916 0.13 -5.769423
v -2.516585 0.13 -5.483284
v -4.049096 0.13 -3.807853
v -5.019826 0.13 -3.951847
v -4.823791 0.13 -5.942217
v -4.049096 0.13 -3.807853
v -4.823791 0.13 -5.942217
v -3.658916 0.13 -5.769423
v -5.019826 0.13 -3.951847
v -6 0.13 -4
v -6 0.13 -6
v -5.019826 0.13 -3.951847
v -6 0.13 -6
v -4.823791 0.13 -5.942217
v -6 0.13 6
v -4.009631 0.13 5.803966
v -4 0.13 6
v -6 0.13 6
v -4.038429 0.13 5.609819
v -4.009631 0.13 5.803966
v -6 0.13 6
v -4.086119 0.13 5.419431
v -4.038429 0.13 5.609819
v -6 0.13 6
v -4.152241 0.13 5.234633
v -4.086119 0.13 5.419431
v -6 0.13 6
v -4.236157 0.13 5.057207
v -4.152241 0.13 5.234633
v -6 0.13 6
v -4.337061 0.13 4.888859
v -4.236157 0.13 5.057207
v -6 0.13 6
v -4.453979 0.13 4.731214
v -4.337061 0.13 4.888859
v -6 0.13 6
v -4.585786 0.13 4.585787
v -4.453979 0.13 4.731214
v -6 0.13 6
v -4.731214 0.13 4.453979
v -4.585786 0.13 4.585787
v -6 0.13 6
v -4.888859 0.13 4.337061
v -4.731214 0.13 4.453979
v -6 0.13 6
v -5.057207 0.13 4.236157
v -4.888859 0.13 4.337061
v -6 0.13 6
v -5.234633 0.13 4.152241
v -5.057207 0.13 4.236157
v -6 0.13 6
v -5.419431 0.13 4.086119
v -5.234633 0.13 4.152241
v -6 0.13 6
v -5.609819 0.13 4.038429
v -5.419431 0.13 4.086119
v -6 0.13 6
v -5.803965 0.13 4.009631
v -5.609819 0.13 4.038429
v -6 0.13 6
v -6 0.13 4
v -5.803965 0.13 4.009631
v -0.068141 0.035 5.689124
v -0.09254 0.035 5.379101
v 0.026803 0.035 5.366558
v -0.068141 0.035 5.689124
v 0.026803 0.035 5.366558
v 0.051695 0.035 5.682844
v -0.09254 0.035 5.379101
v -0.133131 0.035 5.07078
v -0.014608 0.035 5.052008
v -0.09254 0.035 5.379101
v -0.014608 0.035 5.052008
v 0.026803 0.035 5.366558
v -0.262401 0.035 4.462615
v -0.350724 0.035 4.164439
v -0.236598 0.035 4.127357
v -0.262401 0.035 4.462615
v -0.236598 0.035 4.127357
v -0.14649 0.035 4.431557
v -0.350724 0.035 4.164439
v -0.454532 0.035 3.871295
v -0.342503 0.035 3.828291
v -0.350724 0.035 4.164439
v -0.342503 0.035 3.828291
v -0.236598 0.035 4.127357
v -0.707421 0.035 3.303296
v -0.855809 0.035 3.03
v -0.751886 0.035 2.97
v -0.707421 0.035 3.303296
v -0.751886 0.035 2.97
v -0.600501 0.035 3.248817
v -0.855809 0.035 3.03
v -1.018297 0.035 2.764844
v -0.917656 0.035 2.699488
v -0.855809 0.035 3.03
v -0.917656 0.035 2.699488
v -0.751886 0.035 2.97
v -1.383753 0.035 2.261837
v -1.58572 0.035 2.025364
v -1.496542 0.035 1.945068
v -1.383753 0.035 2.261837
v -1.496542 0.035 1.945068
v -1.290496 0.035 2.186318
v -1.58572 0.035 2.025364
v -1.799786 0.035 1.799786
v -1.714932 0.035 1.714933
v -1.58572 0.035 2.025364
v -1.714932 0.035 1.714933
v -1.496542 0.035 1.945068
v -2.261837 0.035 1.383753
v -2.508554 0.035 1.19444
v -2.43802 0.035 1.097358
v -2.261837 0.035 1.383753
v -2.43802 0.035 1.097358
v -2.186319 0.035 1.290495
v -2.508554 0.035 1.19444
v -2.764844 0.035 1.018297
v -2.699487 0.035 0.917656
v -2.508554 0.035 1.19444
v -2.699487 0.035 0.917656
v -2.43802 0.035 1.097358
v -3.303295 0.035 0.707421
v -3.583984 0.035 0.57354
v -3.535176 0.035 0.463915
v -3.303295 0.035 0.707421
v -3.535176 0.035 0.463915
v -3.248816 0.035 0.600501
v -3.583984 0.035 0.57354
v -3.871295 0.035 0.454532
v -3.828291 0.035 0.342502
v -3.583984 0.035 0.57354
v -3.828291 0.035 0.342502
v -3.535176 0.035 0.463915
v -4.462615 0.035 0.2624
v -4.765003 0.035 0.189804
v -4.740054 0.035 0.072426
v -4.462615 0.035 0.2624
v -4.740054 0.035 0.072426
v -4.431557 0.035 0.146489
v -4.765003 0.035 0.189804
v -5.070779 0.035 0.133132
v -5.052007 0.035 0.014609
v -4.765003 0.035 0.189804
v -5.052007 0.035 0.014609
v -4.740054 0.035 0.072426
v -3.8 0.035 6
v -3.810594 0.035 5.784362
v -3.750883 0.035 5.778481
v -3.8 0.035 6
v -3.750883 0.035 5.778481
v -3.74 0.035 6
v -3.810594 0.035 5.784362
v -3.842272 0.035 5.570801
v -3.783425 0.035 5.559096
v -3.810594 0.035 5.784362
v -3.783425 0.035 5.559096
v -3.750883 0.035 5.778481
v -3.842272 0.035 5.570801
v -3.894731 0.035 5.361374
v -3.837315 0.035 5.343957
v -3.842272 0.035 5.570801
v -3.837315 0.035 5.343957
v -3.783425 0.035 5.559096
v -3.894731 0.035 5.361374
v -3.967465 0.035 5.158096
v -3.912032 0.035 5.135136
v -3.894731 0.035 5.361374
v -3.912032 0.035 5.135136
v -3.837315 0.035 5.343957
v -3.967465 0.035 5.158096
v -4.059773 0.035 4.962927
v -4.006858 0.035 4.934643
v -3.967465 0.035 5.158096
v -4.006858 0.035 4.934643
v -3.912032 0.035 5.135136
v -4.059773 0.035 4.962927
v -4.170767 0.035 4.777745
v -4.120879 0.035 4.744411
v -4.059773 0.035 4.962927
v -4.120879 0.035 4.744411
v -4.006858 0.035 4.934643
v -4.170767 0.035 4.777745
v -4.299376 0.035 4.604335
v -4.252996 0.035 4.566271
v -4.170767 0.035 4.777745
v -4.252996 0.035 4.566271
v -4.120879 0.035 4.744411
v -4.299376 0.035 4.604335
v -4.444365 0.035 4.444366
v -4.401938 0.035 4.401939
v -4.299376 0.035 4.604335
v -4.401938 0.035 4.401939
v -4.252996 0.035 4.566271
v -4.444365 0.035 4.444366
v -4.604335 0.035 4.299377
v -4.566271 0.035 4.252996
v -4.444365 0.035 4.444366
v -4.566271 0.035 4.252996
v -4.401938 0.035 4.401939
v -4.604335 0.035 4.299377
v -4.777745 0.035 4.170767
v -4.744411 0.035 4.120879
v -4.604335 0.035 4.299377
v -4.744411 0.035 4.120879
v -4.566271 0.035 4.252996
v -4.777745 0.035 4.170767
v -4.962927 0.035 4.059773
v -4.934644 0.035 4.006858
v -4.777745 0.035 4.170767
v -4.934644 0.035 4.006858
v -4.744411 0.035 4.120879
v -4.962927 0.035 4.059773
v -5.158096 0.035 3.967465
v -5.135135 0.035 3.912032
v -4.962927 0.035 4.059773
v -5.135135 0.035 3.912032
v -4.934644 0.035 4.006858
v -5.158096 0.035 3.967465
v -5.361374 0.035 3.894731
v -5.343957 0.035 3.837315
v -5.158096 0.035 3.967465
v -5.343957 0.035 3.837315
v -5.135135 0.035 3.912032
v -5.361374 0.035 3.894731
v -5.570801 0.035 3.842273
v -5.559096 0.035 3.783425
v -5.361374 0.035 3.894731
v -5.559096 0.035 3.783425
v -5.343957 0.035 3.837315
v -5.570801 0.035 3.842273
v -5.784362 0.035 3.810594
v -5.778481 0.035 3.750883
v -5.570801 0.035 3.842273
v -5.778481 0.035 3.750883
v -5.559096 0.035 3.783425
v -5.784362 0.035 3.810594
v -6 0.035 3.8
v -6 0.035 3.74
v -5.784362 0.035 3.810594
v -6 0.035 3.74
v -5.778481 0.035 3.750883
v 3.74 0.035 5.999999
v 3.693099 0.035 5.045314
v 3.75281 0.035 5.039433
v 3.74 0.035 5.999999
v 3.75281 0.035 5.039433
v 3.8 0.035 5.999999
v 3.693099 0.035 5.045314
v 3.552849 0.035 4.099821
v 3.611696 0.035 4.088116
v 3.693099 0.035 5.045314
v 3.611696 0.035 4.088116
v 3.75281 0.035 5.039433
v 3.552849 0.035 4.099821
v 3.320599 0.035 3.172628
v 3.378016 0.035 3.15521
v 3.552849 0.035 4.099821
v 3.378016 0.035 3.15521
v 3.611696 0.035 4.088116
v 3.320599 0.035 3.172628
v 2.998586 0.035 2.272664
v 3.054019 0.035 2.249702
v 3.320599 0.035 3.172628
v 3.054019 0.035 2.249702
v 3.378016 0.035 3.15521
v 2.998586 0.035 2.272664
v 2.589912 0.035 1.408596
v 2.642828 0.035 1.380311
v 2.998586 0.035 2.272664
v 2.642828 0.035 1.380311
v 3.054019 0.035 2.249702
v 2.589912 0.035 1.408596
v 2.098513 0.035 0.588746
v 2.148401 0.035 0.555411
v 2.589912 0.035 1.408596
v 2.148401 0.035 0.555411
v 2.642828 0.035 1.380311
v 2.098513 0.035 0.588746
v 1.529123 0.035 -0.17899
v 1.575503 0.035 -0.217053
v 2.098513 0.035 0.588746
v 1.575503 0.035 -0.217053
v 2.148401 0.035 0.555411
v 1.529123 0.035 -0.17899
v 0.88722 0.035 -0.887219
v 0.929647 0.035 -0.929646
v 1.529123 0.035 -0.17899
v 0.929647 0.035 -0.929646
v 1.575503 0.035 -0.217053
v 0.88722 0.035 -0.887219
v 0.178991 0.035 -1.529121
v 0.217055 0.035 -1.575502
v 0.88722 0.035 -0.887219
v 0.217055 0.035 -1.575502
v 0.929647 0.035 -0.929646
v 0.178991 0.035 -1.529121
v -0.588744 0.035 -2.098513
v -0.55541 0.035 -2.148401
v 0.178991 0.035 -1.529121
v -0.55541 0.035 -2.148401
v 0.217055 0.035 -1.575502
v -0.588744 0.035 -2.098513
v -1.408597 0.035 -2.589913
v -1.380312 0.035 -2.642829
v -0.588744 0.035 -2.098513
v -1.380312 0.035 -2.642829
v -0.55541 0.035 -2.148401
v -1.408597 0.035 -2.589913
v -2.272662 0.035 -2.998586
v -2.249701 0.035 -3.054019
v -1.408597 0.035 -2.589913
v -2.249701 0.035 -3.054019
v -1.380312 0.035 -2.642829
v -2.272662 0.035 -2.998586
v -3.172629 0.035 -3.320599
v -3.155211 0.035 -3.378016
v -2.272662 0.035 -2.998586
v -3.155211 0.035 -3.378016
v -2.249701 0.035 -3.054019
v -3.172629 0.035 -3.320599
v -4.09982 0.035 -3.552848
v -4.088114 0.035 -3.611695
v -3.172629 0.035 -3.320599
v -4.088114 0.035 -3.611695
v -3.155211 0.035 -3.378016
v -4.09982 0.035 -3.552848
v -5.04531 0.035 -3.693099
v -5.03943 0.035 -3.75281
v -4.09982 0.035 -3.552848
v -5.03943 0.035 -3.75281
v -4.088114 0.035 -3.611695
v -5.04531 0.035 -3.693099
v -6 0.035 -3.74
v -6 0.035 -3.8
v -5.04531 0.035 -3.693099
v -6 0.035 -3.8
v -5.03943 0.035 -3.75281
vt 0.484375 0.5
vt 0.484375 0.5
vt 0.484375 0.5
vt 0.484375 0.5
vt 0.484375 0.5
vt 0.484375 0.5
vt 0.234375 0.5
vt 0.234375 0.5
vt 0.234375 0.5
vt 0.234375 0.5
vt 0.234375 0.5
vt 0.234375 0.5
vt 0.234375 0.5
vt 0.234375 0.5
vt 0.234375 0.5
vt 0.234375 0.5
vt 0.234375 0.5
vt 0.234375 0.5
vt 0.234375 0.5
vt 0.234375 0.5
vt 0.234375 0.5
vt 0.234375 0.5
vt 0.234375 0.5
vt 0.234375 0.5
vt 0.234375 0.5
vt 0.234375 0.5
vt 0.234375 0.5
vt 0.234375 0.5
vt 0.234375 0.5
vt 0.234375 0.5
vt 0.234375 0.5
vt 0.234375 0.5
vt 0.234375 0.5
vt 0.234375 0.5
vt 0.234375 0.5
vt 0.234375 0.5
vt 0.234375 0.5
vt 0.234375 0.5
vt 0.234375 0.5
vt 0.234375 0.5
vt 0.234375 0.5
vt 0.234375 0.5
vt 0.234375 0.5
vt 0.234375 0.5
vt 0.234375 0.5
vt 0.234375 0.5
vt 0.234375 0.5
vt 0.234375 0.5
vt 0.234375 0.5
vt 0.234375 0.5
vt 0.234375 0.5
vt 0.234375 0.5
vt 0.234375 0.5
vt 0.234375 0.5
vt 0.234375 0.5
vt 0.234375 0.5
vt 0.234375 0.5
vt 0.234375 0.5
vt 0.234375 0.5
vt 0.234375 0.5
vt 0.234375 0.5
vt 0.234375 0.5
vt 0.234375 0.5
vt 0.234375 0.5
vt 0.234375 0.5
vt 0.234375 0.5
vt 0.234375 0.5
vt 0.234375 0.5
vt 0.234375 0.5
vt 0.234375 0.5
vt 0.234375 0.5
vt 0.234375 0.5
vt 0.234375 0.5
vt 0.234375 0.5
vt 0.234375 0.5
vt 0.234375 0.5
vt 0.234375 0.5
vt 0.234375 0.5
vt 0.234375 0.5
vt 0.234375 0.5
vt 0.234375 0.5
vt 0.234375 0.5
vt 0.234375 0.5
vt 0.234375 0.5
vt 0.234375 0.5
vt 0.234375 0.5
vt 0.234375 0.5
vt 0.234375 0.5
vt 0.234375 0.5
vt 0.234375 0.5
vt 0.234375 0.5
vt 0.234375 0.5
vt 0.234375 0.5
vt 0.234375 0.5
vt 0.234375 0.5
vt 0.234375 0.5
vt 0.234375 0.5
vt 0.234375 0.5
vt 0.234375 0.5
vt 0.234375 0.5
vt 0.234375 0.5
vt 0.234375 0.5
vt 0.265625 0.5
vt 0.265625 0.5
vt 0.265625 0.5
vt 0.265625 0.5
vt 0.265625 0.5
vt 0.265625 0.5
vt 0.265625 0.5
vt 0.265625 0.5
vt 0.265625 0.5
vt 0.265625 0.5
vt 0.265625 0.5
vt 0.265625 0.5
vt 0.265625 0.5
vt 0.265625 0.5
vt 0.265625 0.5
vt 0.265625 0.5
vt 0.265625 0.5
vt 0.265625 0.5
vt 0.265625 0.5
vt 0.265625 0.5
vt 0.265625 0.5
vt 0.265625 0.5
vt 0.265625 0.5
vt 0.265625 0.5
vt 0.265625 0.5
vt 0.265625 0.5
vt 0.265625 0.5
vt 0.265625 0.5
vt 0.265625 0.5
vt 0.265625 0.5
vt 0.265625 0.5
vt 0.265625 0.5
vt 0.265625 0.5
vt 0.265625 0.5
vt 0.265625 0.5
vt 0.265625 0.5
vt 0.265625 0.5
vt 0.265625 0.5
vt 0.265625 0.5
vt 0.265625 0.5
vt 0.265625 0.5
vt 0.265625 0.5
vt 0.265625 0.5
vt 0.265625 0.5
vt 0.265625 0.5
vt 0.265625 0.5
vt 0.265625 0.5
vt 0.265625 0.5
vt 0.265625 0.5
vt 0.265625 0.5
vt 0.265625 0.5
vt 0.265625 0.5
vt 0.265625 0.5
vt 0.265625 0.5
vt 0.265625 0.5
vt 0.265625 0.5
vt 0.265625 0.5
vt 0.265625 0.5
vt 0.265625 0.5
vt 0.265625 0.5
vt 0.265625 0.5
vt 0.265625 0.5
vt 0.265625 0.5
vt 0.265625 0.5
vt 0.265625 0.5
vt 0.265625 0.5
vt 0.265625 0.5
vt 0.265625 0.5
vt 0.265625 0.5
vt 0.265625 0.5
vt 0.265625 0.5
vt 0.265625 0.5
vt 0.265625 0.5
vt 0.265625 0.5
vt 0.265625 0.5
vt 0.265625 0.5
vt 0.265625 0.5
vt 0.265625 0.5
vt 0.265625 0.5
vt 0.265625 0.5
vt 0.265625 0.5
vt 0.265625 0.5
vt 0.265625 0.5
vt 0.265625 0.5
vt 0.265625 0.5
vt 0.265625 0.5
vt 0.265625 0.5
vt 0.265625 0.5
vt 0.265625 0.5
vt 0.265625 0.5
vt 0.265625 0.5
vt 0.265625 0.5
vt 0.265625 0.5
vt 0.265625 0.5
vt 0.265625 0.5
vt 0.265625 0.5
vt 0.265625 0.5
vt 0.265625 0.5
vt 0.265625 0.5
vt 0.265625 0.5
vt 0.265625 0.5
vt 0.265625 0.5
vt 0.265625 0.5
vt 0.265625 0.5
vt 0.265625 0.5
vt 0.265625 0.5
vt 0.265625 0.5
vt 0.265625 0.5
vt 0.265625 0.5
vt 0.265625 0.5
vt 0.265625 0.5
vt 0.265625 0.5
vt 0.265625 0.5
vt 0.265625 0.5
vt 0.265625 0.5
vt 0.265625 0.5
vt 0.265625 0.5
vt 0.265625 0.5
vt 0.265625 0.5
vt 0.265625 0.5
vt 0.265625 0.5
vt 0.265625 0.5
vt 0.265625 0.5
vt 0.265625 0.5
vt 0.265625 0.5
vt 0.265625 0.5
vt 0.265625 0.5
vt 0.265625 0.5
vt 0.265625 0.5
vt 0.265625 0.5
vt 0.265625 0.5
vt 0.265625 0.5
vt 0.265625 0.5
vt 0.265625 0.5
vt 0.265625 0.5
vt 0.265625 0.5
vt 0.265625 0.5
vt 0.265625 0.5
vt 0.265625 0.5
vt 0.265625 0.5
vt 0.265625 0.5
vt 0.265625 0.5
vt 0.265625 0.5
vt 0.265625 0.5
vt 0.203125 0.5
vt 0.203125 0.5
vt 0.203125 0.5
vt 0.203125 0.5
vt 0.203125 0.5
vt 0.203125 0.5
vt 0.203125 0.5
vt 0.203125 0.5
vt 0.203125 0.5
vt 0.203125 0.5
vt 0.203125 0.5
vt 0.203125 0.5
vt 0.203125 0.5
vt 0.203125 0.5
vt 0.203125 0.5
vt 0.203125 0.5
vt 0.203125 0.5
vt 0.203125 0.5
vt 0.203125 0.5
vt 0.203125 0.5
vt 0.203125 0.5
vt 0.203125 0.5
vt 0.203125 0.5
vt 0.203125 0.5
vt 0.203125 0.5
vt 0.203125 0.5
vt 0.203125 0.5
vt 0.203125 0.5
vt 0.203125 0.5
vt 0.203125 0.5
vt 0.203125 0.5
vt 0.203125 0.5
vt 0.203125 0.5
vt 0.203125 0.5
vt 0.203125 0.5
vt 0.203125 0.5
vt 0.203125 0.5
vt 0.203125 0.5
vt 0.203125 0.5
vt 0.203125 0.5
vt 0.203125 0.5
vt 0.203125 0.5
vt 0.203125 0.5
vt 0.203125 0.5
vt 0.203125 0.5
vt 0.203125 0.5
vt 0.203125 0.5
vt 0.203125 0.5
vt 0.203125 0.5
vt 0.203125 0.5
vt 0.203125 0.5
vt 0.203125 0.5
vt 0.203125 0.5
vt 0.203125 0.5
vt 0.203125 0.5
vt 0.203125 0.5
vt 0.203125 0.5
vt 0.203125 0.5
vt 0.203125 0.5
vt 0.203125 0.5
vt 0.203125 0.5
vt 0.203125 0.5
vt 0.203125 0.5
vt 0.203125 0.5
vt 0.203125 0.5
vt 0.203125 0.5
vt 0.203125 0.5
vt 0.203125 0.5
vt 0.203125 0.5
vt 0.203125 0.5
vt 0.203125 0.5
vt 0.203125 0.5
vt 0.203125 0.5
vt 0.203125 0.5
vt 0.203125 0.5
vt 0.203125 0.5
vt 0.203125 0.5
vt 0.203125 0.5
vt 0.203125 0.5
vt 0.203125 0.5
vt 0.203125 0.5
vt 0.203125 0.5
vt 0.203125 0.5
vt 0.203125 0.5
vt 0.203125 0.5
vt 0.203125 0.5
vt 0.203125 0.5
vt 0.203125 0.5
vt 0.203125 0.5
vt 0.203125 0.5
vt 0.203125 0.5
vt 0.203125 0.5
vt 0.203125 0.5
vt 0.203125 0.5
vt 0.203125 0.5
vt 0.203125 0.5
vt 0.203125 0.5
vt 0.203125 0.5
vt 0.203125 0.5
vt 0.203125 0.5
vt 0.203125 0.5
vt 0.203125 0.5
vt 0.203125 0.5
vt 0.203125 0.5
vt 0.203125 0.5
vt 0.203125 0.5
vt 0.203125 0.5
vt 0.203125 0.5
vt 0.203125 0.5
vt 0.203125 0.5
vt 0.203125 0.5
vt 0.203125 0.5
vt 0.203125 0.5
vt 0.203125 0.5
vt 0.203125 0.5
vt 0.203125 0.5
vt 0.203125 0.5
vt 0.203125 0.5
vt 0.203125 0.5
vt 0.203125 0.5
vt 0.203125 0.5
vt 0.203125 0.5
vt 0.203125 0.5
vt 0.203125 0.5
vt 0.203125 0.5
vt 0.203125 0.5
vt 0.203125 0.5
vt 0.203125 0.5
vt 0.203125 0.5
vt 0.203125 0.5
vt 0.203125 0.5
vt 0.203125 0.5
vt 0.203125 0.5
vt 0.203125 0.5
vt 0.203125 0.5
vt 0.203125 0.5
vt 0.203125 0.5
vt 0.203125 0.5
vt 0.203125 0.5
vt 0.203125 0.5
vt 0.203125 0.5
vt 0.203125 0.5
vt 0.203125 0.5
vt 0.203125 0.5
vt 0.203125 0.5
vt 0.203125 0.5
vt 0.203125 0.5
vt 0.203125 0.5
vt 0.203125 0.5
vt 0.203125 0.5
vt 0.203125 0.5
vt 0.203125 0.5
vt 0.203125 0.5
vt 0.203125 0.5
vt 0.203125 0.5
vt 0.203125 0.5
vt 0.203125 0.5
vt 0.203125 0.5
vt 0.203125 0.5
vt 0.203125 0.5
vt 0.203125 0.5
vt 0.203125 0.5
vt 0.203125 0.5
vt 0.203125 0.5
vt 0.203125 0.5
vt 0.203125 0.5
vt 0.203125 0.5
vt 0.203125 0.5
vt 0.203125 0.5
vt 0.203125 0.5
vt 0.203125 0.5
vt 0.203125 0.5
vt 0.203125 0.5
vt 0.203125 0.5
vt 0.203125 0.5
vt 0.203125 0.5
vt 0.203125 0.5
vt 0.203125 0.5
vt 0.203125 0.5
vt 0.203125 0.5
vt 0.203125 0.5
vt 0.203125 0.5
vt 0.203125 0.5
vt 0.203125 0.5
vt 0.203125 0.5
vt 0.203125 0.5
vt 0.203125 0.5
vt 0.203125 0.5
vt 0.203125 0.5
vt 0.203125 0.5
vt 0.203125 0.5
vt 0.203125 0.5
vt 0.203125 0.5
vt 0.203125 0.5
vt 0.203125 0.5
vt 0.203125 0.5
vt 0.203125 0.5
vt 0.203125 0.5
vt 0.203125 0.5
vt 0.203125 0.5
vt 0.203125 0.5
vt 0.203125 0.5
vt 0.203125 0.5
vt 0.203125 0.5
vt 0.203125 0.5
vt 0.203125 0.5
vt 0.203125 0.5
vt 0.203125 0.5
vt 0.203125 0.5
vt 0.203125 0.5
vt 0.203125 0.5
vt 0.203125 0.5
vt 0.203125 0.5
vt 0.203125 0.5
vt 0.203125 0.5
vt 0.203125 0.5
vt 0.203125 0.5
vt 0.203125 0.5
vt 0.203125 0.5
vt 0.203125 0.5
vt 0.203125 0.5
vt 0.203125 0.5
vt 0.203125 0.5
vt 0.203125 0.5
vt 0.203125 0.5
vt 0.203125 0.5
vt 0.203125 0.5
vt 0.203125 0.5
vt 0.203125 0.5
vt 0.203125 0.5
vt 0.203125 0.5
vt 0.203125 0.5
vt 0.203125 0.5
vt 0.203125 0.5
vt 0.203125 0.5
vt 0.203125 0.5
vt 0.203125 0.5
vt 0.203125 0.5
vt 0.203125 0.5
vt 0.203125 0.5
vt 0.203125 0.5
vt 0.203125 0.5
vt 0.203125 0.5
vt 0.203125 0.5
vt 0.203125 0.5
vt 0.203125 0.5
vt 0.203125 0.5
vt 0.203125 0.5
vt 0.203125 0.5
vt 0.203125 0.5
vt 0.203125 0.5
vt 0.203125 0.5
vt 0.203125 0.5
vt 0.203125 0.5
vt 0.203125 0.5
vt 0.203125 0.5
vt 0.203125 0.5
vt 0.203125 0.5
vt 0.203125 0.5
vt 0.203125 0.5
vt 0.203125 0.5
vt 0.203125 0.5
vt 0.203125 0.5
vt 0.203125 0.5
vt 0.203125 0.5
vt 0.203125 0.5
vt 0.203125 0.5
vt 0.203125 0.5
vt 0.203125 0.5
vt 0.203125 0.5
vt 0.203125 0.5
vt 0.203125 0.5
vt 0.203125 0.5
vt 0.203125 0.5
vt 0.203125 0.5
vt 0.203125 0.5
vn 0 1 0
vn 0 1 0
vn 0 1 0
vn 0 1 0
vn 0 1 0
vn 0 1 0
vn 0 1 0
vn 0 1 0
vn 0 1 0
vn 0 1 0
vn 0 1 0
vn 0 1 0
vn 0 1 0
vn 0 1 0
vn 0 1 0
vn 0 1 0
vn 0 1 0
vn 0 1 0
vn 0 1 0
vn 0 1 0
vn 0 1 0
vn 0 1 0
vn 0 1 0
vn 0 1 0
vn 0 1 0
vn 0 1 0
vn 0 1 0
vn 0 1 0
vn 0 1 0
vn 0 1 0
vn 0 1 0
vn 0 1 0
vn 0 1 0
vn 0 1 0
vn 0 1 0
vn 0 1 0
vn 0 1 0
vn 0 1 0
vn 0 1 0
vn 0 1 0
vn 0 1 0
vn 0 1 0
vn 0 1 0
vn 0 1 0
vn 0 1 0
vn 0 1 0
vn 0 1 0
vn 0 1 0
vn 0 1 0
vn 0 1 0
vn 0 1 0
vn 0 1 0
vn 0 1 0
vn 0 1 0
vn 0 1 0
vn 0 1 0
vn 0 1 0
vn 0 1 0
vn 0 1 0
vn 0 1 0
vn 0 1 0
vn 0 1 0
vn 0 1 0
vn 0 1 0
vn 0 1 0
vn 0 1 0
vn 0 1 0
vn 0 1 0
vn 0 1 0
vn 0 1 0
vn 0 1 0
vn 0 1 0
vn 0 1 0
vn 0 1 0
vn 0 1 0
vn 0 1 0
vn 0 1 0
vn 0 1 0
vn 0 1 0
vn 0 1 0
vn 0 1 0
vn 0 1 0
vn 0 1 0
vn 0 1 0
vn 0 1 0
vn 0 1 0
vn 0 1 0
vn 0 1 0
vn 0 1 0
vn 0 1 0
vn 0 1 0
vn 0 1 0
vn 0 1 0
vn 0 1 0
vn 0 1 0
vn 0 1 0
vn 0 1 0
vn 0 1 0
vn 0 1 0
vn 0 1 0
vn 0 1 0
vn 0 1 0
vn 0 1 0
vn 0 1 0
vn 0 1 0
vn 0 1 0
vn 0 1 0
vn 0 1 0
vn 0 1 0
vn 0 1 0
vn 0 1 0
vn 0 1 0
vn 0 1 0
vn 0 1 0
vn 0 1 0
vn 0 1 0
vn 0 1 0
vn 0 1 0
vn 0 1 0
vn 0 1 0
vn 0 1 0
vn 0 1 0
vn 0 1 0
vn 0 1 0
vn 0 1 0
vn 0 1 0
vn 0 1 0
vn 0 1 0
vn 0 1 0
vn 0 1 0
vn 0 1 0
vn 0 1 0
vn 0 1 0
vn 0 1 0
vn 0 1 0
vn 0 1 0
vn 0 1 0
vn 0 1 0
vn 0 1 0
vn 0 1 0
vn 0 1 0
vn 0 1 0
vn 0 1 0
vn 0 1 0
vn 0 1 0
vn 0 1 0
vn 0 1 0
vn 0 1 0
vn 0 1 0
vn 0 1 0
vn 0 1 0
vn 0 1 0
vn 0 1 0
vn 0 1 0
vn 0 1 0
vn 0 1 0
vn 0 1 0
vn 0 1 0
vn 0 1 0
vn 0 1 0
vn 0 1 0
vn 0 1 0
vn 0 1 0
vn 0 1 0
vn 0 1 0
vn 0 1 0
vn 0 1 0
vn 0 1 0
vn 0 1 0
vn 0 1 0
vn 0 1 0
vn 0 1 0
vn 0 1 0
vn 0 1 0
vn 0 1 0
vn 0 1 0
vn 0 1 0
vn 0 1 0
vn 0 1 0
vn 0 1 0
vn 0 1 0
vn 0 1 0
vn 0 1 0
vn 0 1 0
vn 0 1 0
vn 0 1 0
vn 0 1 0
vn 0 1 0
vn 0 1 0
vn 0 1 0
vn 0 1 0
vn 0 1 0
vn 0 1 0
vn 0 1 0
vn 0 1 0
vn 0 1 0
vn 0 1 0
vn 0 1 0
vn 0 1 0
vn 0 1 0
vn 0 1 0
vn 0 1 0
vn 0 1 0
vn 0 1 0
vn 0 1 0
vn 0 1 0
vn 0 1 0
vn 0 1 0
vn 0 1 0
vn 0 1 0
vn 0 1 0
vn 0 1 0
vn 0 1 0
vn 0 1 0
vn 0 1 0
vn 0 1 0
vn 0 1 0
vn 0 1 0
vn 0 1 0
vn 0 1 0
vn 0 1 0
vn 0 1 0
vn 0 1 0
vn 0 1 0
vn 0 1 0
vn 0 1 0
vn 0 1 0
vn 0 1 0
vn 0 1 0
vn 0 1 0
vn 0 1 0
vn 0 1 0
vn 0 1 0
vn 0 1 0
vn 0 1 0
vn 0 1 0
vn 0 1 0
vn 0 1 0
vn 0 1 0
vn 0 1 0
vn 0 1 0
vn 0 1 0
vn 0 1 0
vn 0 1 0
vn 0 1 0
vn 0 1 0
vn 0 1 0
vn 0 1 0
vn 0 1 0
vn 0 1 0
vn 0 1 0
vn 0 1 0
vn 0 1 0
vn 0 1 0
vn 0 1 0
vn 0 1 0
vn 0 1 0
vn 0 1 0
vn 0 1 0
vn 0 1 0
vn 0 1 0
vn 0 1 0
vn 0 1 0
vn 0 1 0
vn 0 1 0
vn 0 1 0
vn 0 1 0
vn 0 1 0
vn 0 1 0
vn 0 1 0
vn 0 1 0
vn 0 1 0
vn 0 1 0
vn 0 1 0
vn 0 1 0
vn 0 1 0
vn 0 1 0
vn 0 1 0
vn 0 1 0
vn 0 1 0
vn 0 1 0
vn 0 1 0
vn 0 1 0
vn 0 1 0
vn 0 1 0
vn 0 1 0
vn 0 1 0
vn 0 1 0
vn 0 1 0
vn 0 1 0
vn 0 1 0
vn 0 1 0
vn 0 1 0
vn 0 1 0
vn 0 1 0
vn 0 1 0
vn 0 1 0
vn 0 1 0
vn 0 1 0
vn 0 1 0
vn 0 1 0
vn 0 1 0
vn 0 1 0
vn 0 1 0
vn 0 1 0
vn 0 1 0
vn 0 1 0
vn 0 1 0
vn 0 1 0
vn 0 1 0
vn 0 1 0
vn 0 1 0
vn 0 1 0
vn 0 1 0
vn 0 1 0
vn 0 1 0
vn 0 1 0
vn 0 1 0
vn 0 1 0
vn 0 1 0
vn 0 1 0
vn 0 1 0
vn 0 1 0
vn 0 1 0
vn 0 1 0
vn 0 1 0
vn 0 1 0
vn 0 1 0
vn 0 1 0
vn 0 1 0
vn 0 1 0
vn 0 1 0
vn 0 1 0
vn 0 1 0
vn 0 1 0
vn 0 1 0
vn 0 1 0
vn 0 1 0
vn 0 1 0
vn 0 1 0
vn 0 1 0
vn 0 1 0
vn 0 1 0
vn 0 1 0
vn 0 1 0
vn 0 1 0
vn 0 1 0
vn 0 1 0
vn 0 1 0
vn 0 1 0
vn 0 1 0
vn 0 1 0
vn 0 1 0
vn 0 1 0
vn 0 1 0
vn 0 1 0
vn 0 1 0
vn 0 1 0
vn 0 1 0
vn 0 1 0
vn 0 1 0
vn 0 1 0
vn 0 1 0
vn 0 1 0
vn 0 1 0
vn 0 1 0
vn 0 1 0
vn 0 1 0
vn 0 1 0
vn 0 1 0
vn 0 1 0
vn 0 1 0
vn 0 1 0
vn 0 1 0
vn 0 1 0
vn 0 1 0
vn 0 1 0
vn 0 1 0
vn 0 1 0
vn 0 1 0
vn 0 1 0
vn 0 1 0
vn 0 1 0
vn 0 1 0
vn 0 1 0
vn 0 1 0
vn 0 1 0
vn 0 1 0
vn 0 1 0
vn 0 1 0
vn 0 1 0
vn 0 1 0
vn 0 1 0
vn 0 1 0
vn 0 1 0
vn 0 1 0
vn 0 1 0
vn 0 1 0
vn 0 1 0
vn 0 1 0
vn 0 1 0
vn 0 1 0
vn 0 1 0
vn 0 1 0
vn 0 1 0
vn 0 1 0
vn 0 1 0
vn 0 1 0
vn 0 1 0
vn 0 1 0
vn 0 1 0
vn 0 1 0
vn 0 1 0
vn 0 1 0
vn 0 1 0
vn 0 1 0
vn 0 1 0
vn 0 1 0
vn 0 1 0
vn 0 1 0
vn 0 1 0
vn 0 1 0
vn 0 1 0
vn 0 1 0
vn 0 1 0
vn 0 1 0
vn 0 1 0
vn 0 1 0
vn 0 1 0
vn 0 1 0
vn 0 1 0
vn 0 1 0
vn 0 1 0
vn 0 1 0
vn 0 1 0
vn 0 1 0
vn 0 1 0
vn 0 1 0
vn 0 1 0
vn 0 1 0
vn 0 1 0
vn 0 1 0
vn 0 1 0
vn 0 1 0
vn 0 1 0
vn 0 1 0
vn 0 1 0
vn 0 1 0
vn 0 1 0
vn 0 1 0
vn 0 1 0
vn 0 1 0
vn 0 1 0
vn 0 1 0
vn 0 1 0
vn 0 1 0
vn 0 1 0
vn 0 1 0
vn 0 1 0
vn 0 1 0
vn 0 1 0
vn 0 1 0
vn 0 1 0
vn 0 1 0
vn 0 1 0
vn 0 1 0
vn 0 1 0
vn 0 1 0
vn 0 1 0
vn 0 1 0
vn 0 1 0
vn 0 1 0
vn 0 1 0
vn 0 1 0
vn 0 1 0
vn 0 1 0
vn 0 1 0
vn 0 1 0
vn 0 1 0
vn 0 1 0
vn 0 1 0
vn 0 1 0
vn 0 1 0
vn 0 1 0
vn 0 1 0
vn 0 1 0
vn 0 1 0
vn 0 1 0
vn 0 1 0
vn 0 1 0
vn 0 1 0
vn 0 1 0
vn 0 1 0
vn 0 1 0
vn 0 1 0
vn 0 1 0
vn 0 1 0
vn 0 1 0
vn 0 1 0
vn 0 1 0
vn 0 1 0
vn 0 1 0
vn 0 1 0
vn 0 1 0
vn 0 1 0
vn 0 1 0
vn 0 1 0
vn 0 1 0
vn 0 1 0
vn 0 1 0
vn 0 1 0
vn 0 1 0
vn 0 1 0
vn 0 1 0
vn 0 1 0
vn 0 1 0
vn 0 1 0
vn 0 1 0
vn 0 1 0
vn 0 1 0
vn 0 1 0
vn 0 1 0
usemtl TownPalette
f 1/1/1 3/3/3 2/2/2
f 4/4/4 6/6/6 5/5/5
f 7/7/7 9/9/9 8/8/8
f 10/10/10 12/12/12 11/11/11
f 13/13/13 15/15/15 14/14/14
f 16/16/16 18/18/18 17/17/17
f 19/19/19 21/21/21 20/20/20
f 22/22/22 24/24/24 23/23/23
f 25/25/25 27/27/27 26/26/26
f 28/28/28 30/30/30 29/29/29
f 31/31/31 33/33/33 32/32/32
f 34/34/34 36/36/36 35/35/35
f 37/37/37 39/39/39 38/38/38
f 40/40/40 42/42/42 41/41/41
f 43/43/43 45/45/45 44/44/44
f 46/46/46 48/48/48 47/47/47
f 49/49/49 51/51/51 50/50/50
f 52/52/52 54/54/54 53/53/53
f 55/55/55 57/57/57 56/56/56
f 58/58/58 60/60/60 59/59/59
f 61/61/61 63/63/63 62/62/62
f 64/64/64 66/66/66 65/65/65
f 67/67/67 69/69/69 68/68/68
f 70/70/70 72/72/72 71/71/71
f 73/73/73 75/75/75 74/74/74
f 76/76/76 78/78/78 77/77/77
f 79/79/79 81/81/81 80/80/80
f 82/82/82 84/84/84 83/83/83
f 85/85/85 87/87/87 86/86/86
f 88/88/88 90/90/90 89/89/89
f 91/91/91 93/93/93 92/92/92
f 94/94/94 96/96/96 95/95/95
f 97/97/97 99/99/99 98/98/98
f 100/100/100 102/102/102 101/101/101
f 103/103/103 105/105/105 104/104/104
f 106/106/106 108/108/108 107/107/107
f 109/109/109 111/111/111 110/110/110
f 112/112/112 114/114/114 113/113/113
f 115/115/115 117/117/117 116/116/116
f 118/118/118 120/120/120 119/119/119
f 121/121/121 123/123/123 122/122/122
f 124/124/124 126/126/126 125/125/125
f 127/127/127 129/129/129 128/128/128
f 130/130/130 132/132/132 131/131/131
f 133/133/133 135/135/135 134/134/134
f 136/136/136 138/138/138 137/137/137
f 139/139/139 141/141/141 140/140/140
f 142/142/142 144/144/144 143/143/143
f 145/145/145 147/147/147 146/146/146
f 148/148/148 150/150/150 149/149/149
f 151/151/151 153/153/153 152/152/152
f 154/154/154 156/156/156 155/155/155
f 157/157/157 159/159/159 158/158/158
f 160/160/160 162/162/162 161/161/161
f 163/163/163 165/165/165 164/164/164
f 166/166/166 168/168/168 167/167/167
f 169/169/169 171/171/171 170/170/170
f 172/172/172 174/174/174 173/173/173
f 175/175/175 177/177/177 176/176/176
f 178/178/178 180/180/180 179/179/179
f 181/181/181 183/183/183 182/182/182
f 184/184/184 186/186/186 185/185/185
f 187/187/187 189/189/189 188/188/188
f 190/190/190 192/192/192 191/191/191
f 193/193/193 195/195/195 194/194/194
f 196/196/196 198/198/198 197/197/197
f 199/199/199 201/201/201 200/200/200
f 202/202/202 204/204/204 203/203/203
f 205/205/205 207/207/207 206/206/206
f 208/208/208 210/210/210 209/209/209
f 211/211/211 213/213/213 212/212/212
f 214/214/214 216/216/216 215/215/215
f 217/217/217 219/219/219 218/218/218
f 220/220/220 222/222/222 221/221/221
f 223/223/223 225/225/225 224/224/224
f 226/226/226 228/228/228 227/227/227
f 229/229/229 231/231/231 230/230/230
f 232/232/232 234/234/234 233/233/233
f 235/235/235 237/237/237 236/236/236
f 238/238/238 240/240/240 239/239/239
f 241/241/241 243/243/243 242/242/242
f 244/244/244 246/246/246 245/245/245
f 247/247/247 249/249/249 248/248/248
f 250/250/250 252/252/252 251/251/251
f 253/253/253 255/255/255 254/254/254
f 256/256/256 258/258/258 257/257/257
f 259/259/259 261/261/261 260/260/260
f 262/262/262 264/264/264 263/263/263
f 265/265/265 267/267/267 266/266/266
f 268/268/268 270/270/270 269/269/269
f 271/271/271 273/273/273 272/272/272
f 274/274/274 276/276/276 275/275/275
f 277/277/277 279/279/279 278/278/278
f 280/280/280 282/282/282 281/281/281
f 283/283/283 285/285/285 284/284/284
f 286/286/286 288/288/288 287/287/287
f 289/289/289 291/291/291 290/290/290
f 292/292/292 294/294/294 293/293/293
f 295/295/295 297/297/297 296/296/296
f 298/298/298 300/300/300 299/299/299
f 301/301/301 303/303/303 302/302/302
f 304/304/304 306/306/306 305/305/305
f 307/307/307 309/309/309 308/308/308
f 310/310/310 312/312/312 311/311/311
f 313/313/313 315/315/315 314/314/314
f 316/316/316 318/318/318 317/317/317
f 319/319/319 321/321/321 320/320/320
f 322/322/322 324/324/324 323/323/323
f 325/325/325 327/327/327 326/326/326
f 328/328/328 330/330/330 329/329/329
f 331/331/331 333/333/333 332/332/332
f 334/334/334 336/336/336 335/335/335
f 337/337/337 339/339/339 338/338/338
f 340/340/340 342/342/342 341/341/341
f 343/343/343 345/345/345 344/344/344
f 346/346/346 348/348/348 347/347/347
f 349/349/349 351/351/351 350/350/350
f 352/352/352 354/354/354 353/353/353
f 355/355/355 357/357/357 356/356/356
f 358/358/358 360/360/360 359/359/359
f 361/361/361 363/363/363 362/362/362
f 364/364/364 366/366/366 365/365/365
f 367/367/367 369/369/369 368/368/368
f 370/370/370 372/372/372 371/371/371
f 373/373/373 375/375/375 374/374/374
f 376/376/376 378/378/378 377/377/377
f 379/379/379 381/381/381 380/380/380
f 382/382/382 384/384/384 383/383/383
f 385/385/385 387/387/387 386/386/386
f 388/388/388 390/390/390 389/389/389
f 391/391/391 393/393/393 392/392/392
f 394/394/394 396/396/396 395/395/395
f 397/397/397 399/399/399 398/398/398
f 400/400/400 402/402/402 401/401/401
f 403/403/403 405/405/405 404/404/404
f 406/406/406 408/408/408 407/407/407
f 409/409/409 411/411/411 410/410/410
f 412/412/412 414/414/414 413/413/413
f 415/415/415 417/417/417 416/416/416
f 418/418/418 420/420/420 419/419/419
f 421/421/421 423/423/423 422/422/422
f 424/424/424 426/426/426 425/425/425
f 427/427/427 429/429/429 428/428/428
f 430/430/430 432/432/432 431/431/431
f 433/433/433 435/435/435 434/434/434
f 436/436/436 438/438/438 437/437/437
f 439/439/439 441/441/441 440/440/440
f 442/442/442 444/444/444 443/443/443
f 445/445/445 447/447/447 446/446/446
f 448/448/448 450/450/450 449/449/449
f 451/451/451 453/453/453 452/452/452
f 454/454/454 456/456/456 455/455/455
f 457/457/457 459/459/459 458/458/458
f 460/460/460 462/462/462 461/461/461
f 463/463/463 465/465/465 464/464/464
f 466/466/466 468/468/468 467/467/467
f 469/469/469 471/471/471 470/470/470
f 472/472/472 474/474/474 473/473/473
f 475/475/475 477/477/477 476/476/476
f 478/478/478 480/480/480 479/479/479
f 481/481/481 483/483/483 482/482/482
f 484/484/484 486/486/486 485/485/485
f 487/487/487 489/489/489 488/488/488
f 490/490/490 492/492/492 491/491/491
f 493/493/493 495/495/495 494/494/494
f 496/496/496 498/498/498 497/497/497
f 499/499/499 501/501/501 500/500/500
f 502/502/502 504/504/504 503/503/503
f 505/505/505 507/507/507 506/506/506
f 508/508/508 510/510/510 509/509/509
f 511/511/511 513/513/513 512/512/512
f 514/514/514 516/516/516 515/515/515
f 517/517/517 519/519/519 518/518/518
f 520/520/520 522/522/522 521/521/521
