# Retail Empire Tycoon TownKit; metres; ground-centred pivot
mtllib ../TownKit.mtl
o RoadTee
v 6 0 6
v -6 0 6
v -6 0 -6
v 6 0 6
v -6 0 -6
v 6 0 -6
v 4 0.03 6
v -4 0.03 6
v -4 0.03 -6
v 4 0.03 6
v -4 0.03 -6
v 4 0.03 -6
v 6 0.03 4
v 4 0.03 4
v 4 0.03 -4
v 6 0.03 4
v 4 0.03 -4
v 6 0.03 -4
v -4 0.03 4
v -6 0.03 4
v -6 0.03 -4
v -4 0.03 4
v -6 0.03 -4
v -4 0.03 -4
v 4 0.13 6
v -4 0.13 6
v -4 0.13 4
v 4 0.13 6
v -4 0.13 4
v 4 0.13 4
v 6 0.13 -4
v 4 0.13 -4
v 4 0.13 -6
v 6 0.13 -4
v 4 0.13 -6
v 6 0.13 -6
v 6 0.13 6
v 4 0.13 6
v 4 0.13 4
v 6 0.13 6
v 4 0.13 4
v 6 0.13 4
v -4 0.13 -4
v -6 0.13 -4
v -6 0.13 -6
v -4 0.13 -4
v -6 0.13 -6
v -4 0.13 -6
v -4 0.13 6
v -6 0.13 6
v -6 0.13 4
v -4 0.13 6
v -6 0.13 4
v -4 0.13 4
v 0.06 0.035 -5.25
v -0.06 0.035 -5.25
v -0.06 0.035 -5.75
v 0.06 0.035 -5.25
v -0.06 0.035 -5.75
v 0.06 0.035 -5.75
v 5.75 0.035 0.06
v 5.25 0.035 0.06
v 5.25 0.035 -0.06
v 5.75 0.035 0.06
v 5.25 0.035 -0.06
v 5.75 0.035 -0.06
v -5.25 0.035 0.06
v -5.75 0.035 0.06
v -5.75 0.035 -0.06
v -5.25 0.035 0.06
v -5.75 0.035 -0.06
v -5.25 0.035 -0.06
v 0.06 0.035 -4.25
v -0.06 0.035 -4.25
v -0.06 0.035 -4.75
v 0.06 0.035 -4.25
v -0.06 0.035 -4.75
v 0.06 0.035 -4.75
v 4.75 0.035 0.06
v 4.25 0.035 0.06
v 4.25 0.035 -0.06
v 4.75 0.035 0.06
v 4.25 0.035 -0.06
v 4.75 0.035 -0.06
v -4.25 0.035 0.06
v -4.75 0.035 0.06
v -4.75 0.035 -0.06
v -4.25 0.035 0.06
v -4.75 0.035 -0.06
v -4.25 0.035 -0.06
vt 0.484375 0.5
vt 0.484375 0.5
vt 0.484375 0.5
vt 0.484375 0.5
vt 0.484375 0.5
vt 0.484375 0.5
vt 0.234375 0.5
vt 0.234375 0.5
vt 0.234375 0.5
vt 0.234375 0.5
vt 0.234375 0.5
vt 0.234375 0.5
vt 0.234375 0.5
vt 0.234375 0.5
vt 0.234375 0.5
vt 0.234375 0.5
vt 0.234375 0.5
vt 0.234375 0.5
vt 0.234375 0.5
vt 0.234375 0.5
vt 0.234375 0.5
vt 0.234375 0.5
vt 0.234375 0.5
vt 0.234375 0.5
vt 0.265625 0.5
vt 0.265625 0.5
vt 0.265625 0.5
vt 0.265625 0.5
vt 0.265625 0.5
vt 0.265625 0.5
vt 0.265625 0.5
vt 0.265625 0.5
vt 0.265625 0.5
vt 0.265625 0.5
vt 0.265625 0.5
vt 0.265625 0.5
vt 0.265625 0.5
vt 0.265625 0.5
vt 0.265625 0.5
vt 0.265625 0.5
vt 0.265625 0.5
vt 0.265625 0.5
vt 0.265625 0.5
vt 0.265625 0.5
vt 0.265625 0.5
vt 0.265625 0.5
vt 0.265625 0.5
vt 0.265625 0.5
vt 0.265625 0.5
vt 0.265625 0.5
vt 0.265625 0.5
vt 0.265625 0.5
vt 0.265625 0.5
vt 0.265625 0.5
vt 0.203125 0.5
vt 0.203125 0.5
vt 0.203125 0.5
vt 0.203125 0.5
vt 0.203125 0.5
vt 0.203125 0.5
vt 0.203125 0.5
vt 0.203125 0.5
vt 0.203125 0.5
vt 0.203125 0.5
vt 0.203125 0.5
vt 0.203125 0.5
vt 0.203125 0.5
vt 0.203125 0.5
vt 0.203125 0.5
vt 0.203125 0.5
vt 0.203125 0.5
vt 0.203125 0.5
vt 0.203125 0.5
vt 0.203125 0.5
vt 0.203125 0.5
vt 0.203125 0.5
vt 0.203125 0.5
vt 0.203125 0.5
vt 0.203125 0.5
vt 0.203125 0.5
vt 0.203125 0.5
vt 0.203125 0.5
vt 0.203125 0.5
vt 0.203125 0.5
vt 0.203125 0.5
vt 0.203125 0.5
vt 0.203125 0.5
vt 0.203125 0.5
vt 0.203125 0.5
vt 0.203125 0.5
vn 0 1 0
vn 0 1 0
vn 0 1 0
vn 0 1 0
vn 0 1 0
vn 0 1 0
vn 0 1 0
vn 0 1 0
vn 0 1 0
vn 0 1 0
vn 0 1 0
vn 0 1 0
vn 0 1 0
vn 0 1 0
vn 0 1 0
vn 0 1 0
vn 0 1 0
vn 0 1 0
vn 0 1 0
vn 0 1 0
vn 0 1 0
vn 0 1 0
vn 0 1 0
vn 0 1 0
vn 0 1 0
vn 0 1 0
vn 0 1 0
vn 0 1 0
vn 0 1 0
vn 0 1 0
vn 0 1 0
vn 0 1 0
vn 0 1 0
vn 0 1 0
vn 0 1 0
vn 0 1 0
vn 0 1 0
vn 0 1 0
vn 0 1 0
vn 0 1 0
vn 0 1 0
vn 0 1 0
vn 0 1 0
vn 0 1 0
vn 0 1 0
vn 0 1 0
vn 0 1 0
vn 0 1 0
vn 0 1 0
vn 0 1 0
vn 0 1 0
vn 0 1 0
vn 0 1 0
vn 0 1 0
vn 0 1 0
vn 0 1 0
vn 0 1 0
vn 0 1 0
vn 0 1 0
vn 0 1 0
vn 0 1 0
vn 0 1 0
vn 0 1 0
vn 0 1 0
vn 0 1 0
vn 0 1 0
vn 0 1 0
vn 0 1 0
vn 0 1 0
vn 0 1 0
vn 0 1 0
vn 0 1 0
vn 0 1 0
vn 0 1 0
vn 0 1 0
vn 0 1 0
vn 0 1 0
vn 0 1 0
vn 0 1 0
vn 0 1 0
vn 0 1 0
vn 0 1 0
vn 0 1 0
vn 0 1 0
vn 0 1 0
vn 0 1 0
vn 0 1 0
vn 0 1 0
vn 0 1 0
vn 0 1 0
usemtl TownPalette
f 1/1/1 3/3/3 2/2/2
f 4/4/4 6/6/6 5/5/5
f 7/7/7 9/9/9 8/8/8
f 10/10/10 12/12/12 11/11/11
f 13/13/13 15/15/15 14/14/14
f 16/16/16 18/18/18 17/17/17
f 19/19/19 21/21/21 20/20/20
f 22/22/22 24/24/24 23/23/23
f 25/25/25 27/27/27 26/26/26
f 28/28/28 30/30/30 29/29/29
f 31/31/31 33/33/33 32/32/32
f 34/34/34 36/36/36 35/35/35
f 37/37/37 39/39/39 38/38/38
f 40/40/40 42/42/42 41/41/41
f 43/43/43 45/45/45 44/44/44
f 46/46/46 48/48/48 47/47/47
f 49/49/49 51/51/51 50/50/50
f 52/52/52 54/54/54 53/53/53
f 55/55/55 57/57/57 56/56/56
f 58/58/58 60/60/60 59/59/59
f 61/61/61 63/63/63 62/62/62
f 64/64/64 66/66/66 65/65/65
f 67/67/67 69/69/69 68/68/68
f 70/70/70 72/72/72 71/71/71
f 73/73/73 75/75/75 74/74/74
f 76/76/76 78/78/78 77/77/77
f 79/79/79 81/81/81 80/80/80
f 82/82/82 84/84/84 83/83/83
f 85/85/85 87/87/87 86/86/86
f 88/88/88 90/90/90 89/89/89
